<?xml version="1.0" standalone="no"?>
<!DOCTYPE svg PUBLIC "-//W3C//DTD SVG 1.1//EN" "http://www.w3.org/Graphics/SVG/1.1/DTD/svg11.dtd" >
<svg xmlns="http://www.w3.org/2000/svg" xmlns:xlink="http://www.w3.org/1999/xlink" version="1.1">
<metadata></metadata>
<defs>
<font id="circular_stdbold_italic" horiz-adv-x="1187" >
<font-face units-per-em="2048" ascent="1657" descent="-391" />
<missing-glyph horiz-adv-x="534" />
<glyph horiz-adv-x="0" />
<glyph horiz-adv-x="0" />
<glyph unicode="&#xd;" horiz-adv-x="534" />
<glyph unicode=" "  horiz-adv-x="534" />
<glyph unicode="&#x09;" horiz-adv-x="534" />
<glyph unicode="&#xa0;" horiz-adv-x="534" />
<glyph unicode="!" horiz-adv-x="649" d="M39 129q0 74 52 127t128 53q63 0 104.5 -43t41.5 -102q0 -74 -53.5 -127t-123.5 -53q-66 0 -107.5 42t-41.5 103zM156 442l147 1010h330l-279 -1010h-198z" />
<glyph unicode="&#x22;" horiz-adv-x="866" d="M154 1184q0 74 46 121t119 47q63 0 103.5 -38t40.5 -97q0 -53 -31 -107l-166 -342h-96l-12 315q0 20 -1 46t-2 39.5t-1 15.5zM539 1184q0 74 46 121t120 47q63 0 103 -38t40 -97q0 -53 -31 -107l-166 -342h-96l-12 315q0 20 -1 46t-2 39.5t-1 15.5z" />
<glyph unicode="#" horiz-adv-x="1490" d="M66 330v194h292l62 287h-252v197h293l69 319h215l-69 -319h268l70 319h213l-70 -319h260v-197h-301l-61 -287h260v-194h-303l-70 -330h-213l70 330h-269l-69 -330h-215l69 330h-249zM573 524h269l61 287h-268z" />
<glyph unicode="$" horiz-adv-x="1177" d="M25 406q0 23 4 43l254 43q-2 -16 -2 -39q0 -102 62.5 -175t184.5 -75q90 0 143.5 43t55.5 114q0 90 -111 148q-6 2 -74.5 33.5t-84.5 38.5q-260 117 -260 358q0 174 124.5 289.5t311.5 128.5l43 213h223l-49 -236q147 -45 216 -151.5t69 -210.5l-258 -45q0 27 -7.5 54.5 t-28 63t-67.5 58t-117 22.5q-80 0 -132 -48t-52 -113q0 -98 102 -146l152 -69q281 -129 281 -369q0 -160 -122 -281t-325 -129l-43 -207h-223l49 232q-160 45 -239.5 163.5t-79.5 248.5z" />
<glyph unicode="%" horiz-adv-x="1619" d="M78 0l1214 1329h248l-1214 -1329h-248zM84 985q0 156 110.5 262.5t258.5 106.5q129 0 216 -88t87 -215q0 -156 -113 -261.5t-256 -105.5q-131 0 -217 87t-86 214zM287 997q0 -53 31.5 -86.5t84.5 -33.5q59 0 104.5 45t45.5 118q0 55 -32 88t-87 33q-57 0 -102 -46 t-45 -118zM868 281q0 156 111 262t258 106q129 0 216 -88t87 -215q0 -156 -113 -261t-256 -105q-131 0 -217 87t-86 214zM1071 293q0 -53 32 -87t85 -34q59 0 104 45t45 119q0 55 -31.5 88t-86.5 33q-57 0 -102.5 -46t-45.5 -118z" />
<glyph unicode="&#x26;" horiz-adv-x="1390" d="M16 352q0 152 85 250t247 189l23 12l-17 24q-100 143 -100 267q0 184 128 286.5t298 102.5q166 0 270.5 -96.5t104.5 -235.5q0 -131 -79 -219t-208 -158l-51 -29l172 -245l440 372l-76 -356l-235 -201l221 -315h-309l-105 152l-26 -23q-172 -145 -373 -145 q-186 0 -298 109.5t-112 258.5zM289 377q0 -66 47 -111t121 -45q100 0 221 101l18 14l-200 287l-54 -29q-80 -43 -116.5 -92t-36.5 -125zM510 1104q0 -61 49 -131l35 -49l63 34q139 74 140 179q0 53 -39 86.5t-99 33.5q-55 0 -102 -38.5t-47 -114.5z" />
<glyph unicode="'" horiz-adv-x="473" d="M154 1184q0 74 46 121t119 47q63 0 103.5 -38t40.5 -97q0 -53 -31 -107l-166 -342h-96l-12 315q0 20 -1 46t-2 39.5t-1 15.5z" />
<glyph unicode="(" horiz-adv-x="659" d="M57 422q0 805 668 1251l123 -164q-559 -403 -559 -1071q0 -358 200 -657l-184 -121q-246 352 -248 762z" />
<glyph unicode=")" horiz-adv-x="663" d="M-199 -182q565 432 566 1079q0 358 -201 647l184 121q246 -354 246 -766q0 -766 -670 -1243z" />
<glyph unicode="*" horiz-adv-x="927" d="M119 1079l94 193l223 -80l45 260h226l-52 -260l252 78l31 -205l-256 -76l119 -201l-185 -122l-122 213l-197 -215l-152 127l201 210z" />
<glyph unicode="+" horiz-adv-x="1193" d="M82 492v223h387v399h229v-399h387v-223h-387v-402h-229v402h-387z" />
<glyph unicode="," horiz-adv-x="591" d="M-80 -348l29 139q78 8 154.5 67.5t95.5 141.5q-16 -8 -47 -8q-70 0 -113 43t-43 106q0 84 58.5 138.5t144.5 54.5q84 0 136 -56.5t52 -142.5q0 -195 -135 -333t-332 -150z" />
<glyph unicode="-" horiz-adv-x="747" d="M23 487l51 242h596l-54 -242h-593z" />
<glyph unicode="." horiz-adv-x="575" d="M-8 154q0 84 61.5 144t147.5 60q76 0 123 -48t47 -117q0 -84 -61.5 -144.5t-147.5 -60.5q-76 0 -123 48t-47 118z" />
<glyph unicode="/" horiz-adv-x="962" d="M-172 -31l1055 1514h262l-1059 -1514h-258z" />
<glyph unicode="0" horiz-adv-x="1249" d="M55 483q0 106 19.5 219t69 233t120 213t184 152.5t250.5 59.5q168 0 281 -77t158 -188.5t45 -248.5q0 -109 -20.5 -222.5t-70 -232.5t-121 -212t-183 -151.5t-246.5 -58.5q-127 0 -223.5 43t-151.5 118t-83 164t-28 189zM336 487q0 -268 219 -268q90 0 160.5 65.5 t108.5 166t57.5 202t19.5 191.5q0 264 -219 264q-74 0 -134.5 -43t-99 -109.5t-64.5 -151.5t-37 -165t-11 -152z" />
<glyph unicode="1" horiz-adv-x="755" d="M53 903l41 187q127 4 227.5 69.5t141.5 169.5h244l-281 -1329h-283l193 903h-283z" />
<glyph unicode="2" horiz-adv-x="1120" d="M-68 0q0 4 4.5 28.5t4.5 28.5q35 188 134 321.5t292 219.5l243 109q207 92 207 235q0 72 -46 121t-142 49q-115 0 -173.5 -78t-58.5 -213l-262 29q0 221 137.5 365.5t372.5 144.5q221 0 337 -110.5t116 -276.5q0 -305 -355 -465l-282 -127q-98 -43 -150 -137h647 l-51 -244h-975z" />
<glyph unicode="3" horiz-adv-x="1112" d="M-23 401q0 20 5 37l274 31q-2 -14 -2 -39q0 -94 57.5 -155.5t153.5 -61.5q106 0 174 63.5t68 165.5q0 90 -58.5 137.5t-144.5 47.5q-45 -1 -84 -15l-94 211l413 264h-585l47 242h942l-56 -276l-395 -254q129 -14 214 -108.5t85 -237.5q0 -195 -148.5 -339.5 t-379.5 -144.5q-225 0 -355.5 128t-130.5 304z" />
<glyph unicode="4" horiz-adv-x="1218" d="M-29 285l62 297l727 747h340l-172 -803h227l-51 -241h-227l-58 -285h-278l57 285h-627zM272 526h377l109 500z" />
<glyph unicode="5" horiz-adv-x="1105" d="M-10 397v9l266 51q-2 -4 -2 -27q0 -90 57.5 -155.5t159.5 -65.5q100 0 172 65.5t72 180.5q0 92 -59.5 144t-151.5 52q-111 0 -187 -69l-235 116l276 631h748l-51 -244h-543l-119 -264q80 49 195 49q195 0 303 -103t108 -282q0 -219 -147 -368.5t-385 -149.5 q-211 0 -344 127t-133 303z" />
<glyph unicode="6" horiz-adv-x="1171" d="M39 481q0 362 227.5 614.5t587.5 252.5q231 0 344 -78l-113 -217q-104 55 -251 55q-162 0 -291 -90t-181 -254q106 119 289 119q190 0 300 -105.5t110 -279.5q0 -229 -154.5 -378t-382.5 -149q-211 0 -348 139.5t-137 370.5zM319 414q0 -90 58.5 -146.5t152.5 -56.5 q100 0 172 67.5t72 178.5q0 90 -56.5 144t-152.5 54q-102 0 -174 -67.5t-72 -173.5z" />
<glyph unicode="7" horiz-adv-x="1073" d="M33 0q49 182 134 355t168 290t177 220.5t146.5 148.5t93.5 76h-666l51 239h1006l-49 -235q-49 -33 -106.5 -80t-155 -147.5t-183.5 -216t-175 -289t-144 -361.5h-297z" />
<glyph unicode="8" horiz-adv-x="1142" d="M-2 338q0 129 90 225t238 127q-72 33 -123 106.5t-51 161.5q0 178 141 290t354 112q211 0 330 -101.5t119 -252.5q0 -119 -77 -211.5t-208 -130.5q82 -31 131 -112t49 -171q0 -188 -153.5 -300t-368.5 -112q-205 0 -338 98.5t-133 270.5zM274 373q0 -78 59.5 -126 t151.5 -48q102 0 168 60t66 144q0 74 -53.5 124.5t-158 50.5t-169 -60.5t-64.5 -144.5zM422 936q0 -63 46 -109.5t134 -46.5q92 0 150.5 55.5t58.5 135.5q0 63 -45 109t-129 46q-100 0 -157.5 -56t-57.5 -134z" />
<glyph unicode="9" horiz-adv-x="1155" d="M-47 76l110 217q121 -74 267 -74q168 0 291.5 97.5t162.5 261.5q-100 -123 -280 -123q-184 0 -301 112.5t-117 288.5q0 227 154.5 365.5t377.5 138.5q215 0 350.5 -137.5t135.5 -372.5q0 -397 -217 -639t-559 -242q-228 1 -375 107zM367 877q0 -90 57 -143.5t151 -53.5 q102 0 171 66.5t69 171.5q0 90 -57.5 145t-149.5 55q-98 0 -169.5 -65t-71.5 -176z" />
<glyph unicode=":" horiz-adv-x="608" d="M2 152q0 82 59.5 141t145.5 59q74 0 121 -47t47 -117q0 -82 -60.5 -141t-144.5 -59q-76 0 -122 47t-46 117zM145 821q0 82 59.5 141.5t145.5 59.5q74 0 121 -47t47 -117q0 -82 -60.5 -141.5t-144.5 -59.5q-76 0 -122 47.5t-46 116.5z" />
<glyph unicode=";" horiz-adv-x="608" d="M-78 -332l27 133q74 6 147.5 63.5t91.5 135.5q-16 -8 -45 -8q-66 0 -107.5 41t-41.5 102q0 80 56 132t138 52q80 0 129.5 -54t49.5 -136q0 -186 -129 -318.5t-316 -142.5zM145 821q0 82 59.5 141.5t145.5 59.5q74 0 121 -47t47 -117q0 -82 -60.5 -141.5t-144.5 -59.5 q-76 0 -122 47.5t-46 116.5z" />
<glyph unicode="&#x3c;" horiz-adv-x="1019" d="M45 500v207l881 444v-252l-607 -293l607 -293v-256z" />
<glyph unicode="=" horiz-adv-x="1267" d="M121 291v221h993v-221h-993zM121 698v220h993v-220h-993z" />
<glyph unicode="&#x3e;" horiz-adv-x="1019" d="M70 57v252l606 293l-606 293v256l880 -444v-205z" />
<glyph unicode="?" horiz-adv-x="1038" d="M104 1004q4 207 144.5 343t363.5 136q211 0 327 -107.5t116 -255.5q0 -266 -283 -426l-94 -55q-134 -78 -148 -201h-217q4 264 222 387l114 66q123 70 123 190q0 66 -45 112t-135 46q-113 0 -173.5 -77t-60.5 -187zM229 129q0 74 52.5 127t128.5 53q63 0 104 -43t41 -102 q0 -74 -53 -127t-123 -53q-66 0 -108 42t-42 103z" />
<glyph unicode="@" horiz-adv-x="1648" d="M53 678q0 352 234.5 579.5t570.5 227.5q315 0 526 -192.5t211 -481.5q0 -227 -126 -376.5t-293 -149.5q-76 0 -127.5 34.5t-67.5 88.5q-37 -59 -102.5 -93t-135.5 -34q-135 0 -223 99t-88 255q0 199 119 330t285 131q63 0 119.5 -29t78.5 -84l17 86h194l-106 -502 q-6 -25 -6 -39q0 -27 17 -46t48 -19q78 0 140.5 100.5t62.5 245.5q0 217 -150.5 353t-390.5 136q-260 0 -430 -171t-170 -445q0 -262 166 -430t451 -168q215 0 376 121l99 -139q-82 -74 -216 -119t-259 -45q-362 0 -593 215t-231 561zM643 653q0 -188 145 -188 q84 0 140.5 81t60.5 204q0 76 -35.5 118.5t-103.5 42.5q-90 0 -148.5 -75.5t-58.5 -182.5z" />
<glyph unicode="A" horiz-adv-x="1392" d="M-150 0l850 1452h324l231 -1452h-292l-48 332h-561l-186 -332h-318zM500 590h379l-76 545z" />
<glyph unicode="B" horiz-adv-x="1251" d="M12 0l307 1452h482q186 0 286.5 -94t100.5 -248q0 -127 -80 -234.5t-201 -140.5q80 -25 138.5 -103.5t58.5 -185.5q0 -195 -141.5 -320.5t-362.5 -125.5h-588zM340 236h221q115 0 188.5 61t73.5 162q0 74 -48 116.5t-144 42.5h-211zM469 852h190q109 0 176.5 58.5 t67.5 154.5q0 70 -47 109.5t-139 39.5h-170z" />
<glyph unicode="C" horiz-adv-x="1470" d="M66 627q0 262 115.5 460.5t292.5 296t382 99.5q141 0 254 -41t183.5 -110.5t112.5 -149.5t58 -168l-274 -82q-23 115 -111 198.5t-243 83.5q-201 0 -341.5 -160.5t-140.5 -410.5q0 -180 102.5 -291.5t274.5 -111.5q264 0 383 272l254 -102q-76 -184 -243 -313.5 t-418 -129.5q-285 0 -463 186.5t-178 473.5z" />
<glyph unicode="D" horiz-adv-x="1443" d="M12 0l305 1452h431q293 0 461.5 -165t168.5 -439q0 -199 -65.5 -362.5t-175 -268t-247.5 -161t-290 -56.5h-588zM346 266h264q188 0 334 153.5t146 401.5q0 174 -93.5 271.5t-273.5 97.5h-180z" />
<glyph unicode="E" d="M12 0l307 1452h906l-58 -266h-620l-72 -332h563l-53 -252h-563l-72 -336h623l-55 -266h-906z" />
<glyph unicode="F" horiz-adv-x="1153" d="M12 0l307 1452h914l-57 -268h-631l-76 -359h561l-53 -260h-561l-121 -565h-283z" />
<glyph unicode="G" horiz-adv-x="1548" d="M66 627q0 199 66.5 362.5t177 270t251.5 165t295 58.5q141 0 255 -40t185.5 -106.5t115.5 -144.5t58 -166l-276 -82q-23 113 -111.5 193t-248.5 80q-199 0 -339.5 -159t-140.5 -415q0 -188 99.5 -301t275.5 -113q152 0 257.5 77t143.5 204h-450l51 246h713l-158 -756 h-217l6 150q-139 -176 -391 -177q-274 0 -446 180.5t-172 473.5z" />
<glyph unicode="H" horiz-adv-x="1482" d="M12 0l307 1452h283l-123 -584h584l123 584h284l-307 -1452h-284l127 602h-584l-127 -602h-283z" />
<glyph unicode="I" horiz-adv-x="618" d="M12 0l307 1452h287l-307 -1452h-287z" />
<glyph unicode="J" horiz-adv-x="1134" d="M-2 371q0 78 12 131l13 53l276 39l-23 -113q-8 -45 -8 -67q0 -78 43 -128t127 -50q78 0 130.5 53t70.5 145l217 1018h287l-223 -1049q-43 -199 -175.5 -316.5t-320.5 -117.5q-199 0 -312.5 112t-113.5 290z" />
<glyph unicode="K" horiz-adv-x="1411" d="M12 0l307 1452h283l-129 -612l680 612h389l-727 -651l420 -801h-332l-311 602l-211 -190l-86 -412h-283z" />
<glyph unicode="L" horiz-adv-x="1130" d="M12 0l307 1452h283l-250 -1182h631l-57 -270h-914z" />
<glyph unicode="M" horiz-adv-x="1935" d="M12 0l307 1452h347l229 -1042l625 1042h403l-307 -1452h-279l213 1012l-616 -1012h-223l-215 999l-213 -999h-271z" />
<glyph unicode="N" horiz-adv-x="1531" d="M12 0l307 1452h326l385 -969l207 969h283l-308 -1452h-282l-420 1026l-217 -1026h-281z" />
<glyph unicode="O" horiz-adv-x="1552" d="M66 618q0 201 66.5 367t176 273.5t248.5 166t289 58.5q289 0 465 -179.5t176 -469.5q0 -201 -66.5 -367t-176 -273.5t-248 -166t-287.5 -58.5q-289 0 -466 180t-177 469zM354 639q0 -182 100.5 -289.5t266.5 -107.5q199 0 336 161.5t139 413.5q0 182 -98.5 289.5 t-268.5 107.5q-201 0 -338 -167.5t-137 -407.5z" />
<glyph unicode="P" horiz-adv-x="1210" d="M12 0l307 1452h474q195 0 315.5 -111.5t120.5 -289.5q0 -229 -155.5 -363.5t-405.5 -136.5h-256l-117 -551h-283zM463 795h203q121 0 196.5 61.5t75.5 173.5q0 82 -53.5 129t-157.5 47h-174z" />
<glyph unicode="Q" horiz-adv-x="1554" d="M66 618q0 201 66.5 367t176 273.5t248.5 166t289 58.5q289 0 465 -179.5t176 -469.5q0 -410 -262 -658l145 -207l-213 -137l-143 203q-147 -66 -305 -66q-289 0 -466 180t-177 469zM354 639q0 -182 100.5 -289.5t266.5 -107.5q72 0 133 20l-205 291l215 139l197 -282 q135 174 135 407q0 182 -98.5 289.5t-268.5 107.5q-201 0 -338 -167.5t-137 -407.5z" />
<glyph unicode="R" horiz-adv-x="1286" d="M12 0l307 1452h506q197 0 306.5 -103.5t109.5 -269.5q0 -178 -100.5 -305t-263.5 -176l225 -598h-301l-203 561h-184l-119 -561h-283zM465 807h217q123 0 196.5 64.5t73.5 170.5q0 76 -48 120t-142 44h-211z" />
<glyph unicode="S" horiz-adv-x="1196" d="M-2 444q0 29 4 43l264 45q-2 -18 -2 -43q0 -113 70 -192.5t207 -81.5q102 0 162.5 49t62.5 129q0 109 -123 162l-176 78q-281 125 -281 389q0 201 149.5 330t364.5 129q135 0 237.5 -43t155 -110.5t77 -135.5t24.5 -131l-264 -45q0 29 -8.5 59.5t-31 69.5t-74.5 64.5 t-128 25.5q-94 0 -155.5 -55.5t-61.5 -128.5q0 -109 115 -160l168 -74q303 -133 303 -401q0 -180 -140.5 -313.5t-371.5 -133.5q-143 0 -254 45t-171.5 118t-91 151.5t-30.5 160.5z" />
<glyph unicode="T" horiz-adv-x="1214" d="M133 1184l57 268h1145l-57 -268h-422l-250 -1184h-282l249 1184h-440z" />
<glyph unicode="U" horiz-adv-x="1384" d="M94 434q0 63 17 141l184 877h283l-187 -889q-10 -55 -10 -92q0 -106 60.5 -166.5t185.5 -60.5q225 0 280 262l199 946h287l-211 -993q-49 -236 -205 -363t-373 -127q-231 0 -370.5 126t-139.5 339z" />
<glyph unicode="V" horiz-adv-x="1353" d="M154 1452h290l144 -1083l590 1083h317l-833 -1452h-289z" />
<glyph unicode="W" horiz-adv-x="2039" d="M172 1452h283l55 -1003l506 1003h293l110 -1008l455 1008h301l-688 -1452h-285l-112 1034l-525 -1034h-297z" />
<glyph unicode="X" horiz-adv-x="1349" d="M-131 0l637 733l-330 719h322l213 -481l405 481h352l-639 -737l332 -715h-325l-211 477l-402 -477h-354z" />
<glyph unicode="Y" horiz-adv-x="1282" d="M164 1452h299l207 -569l403 569h340l-645 -844l-129 -608h-283l129 612z" />
<glyph unicode="Z" horiz-adv-x="1296" d="M-61 0l57 272l917 912h-704l57 268h1086l-56 -262l-931 -922h745l-57 -268h-1114z" />
<glyph unicode="[" horiz-adv-x="655" d="M-53 -336l422 1995h473l-43 -207h-250l-334 -1577h248l-45 -211h-471z" />
<glyph unicode="\" horiz-adv-x="913" d="M115 1483h233l438 -1514h-233z" />
<glyph unicode="]" horiz-adv-x="665" d="M-215 -336l45 211h248l334 1577h-248l43 207h473l-424 -1995h-471z" />
<glyph unicode="^" horiz-adv-x="1157" d="M94 719l406 733h209l405 -733h-256l-252 473l-252 -473h-260z" />
<glyph unicode="_" horiz-adv-x="1050" d="M-141 0h1046v-223h-1046v223z" />
<glyph unicode="`" horiz-adv-x="569" d="M6 1436h303l119 -308h-211z" />
<glyph unicode="a" d="M14 430q0 256 147.5 429t366.5 173q125 0 196 -43t97 -96l25 115h264l-166 -787q-18 -88 -18 -182q0 -20 2 -39h-252q-2 16 -2 47q0 27 4 76q-96 -141 -270 -141q-180 0 -287 128t-107 320zM285 440q0 -104 53 -163.5t143 -59.5q109 0 185.5 97.5t76.5 258.5 q0 100 -51 157.5t-141 57.5q-123 0 -194.5 -106.5t-71.5 -241.5z" />
<glyph unicode="b" horiz-adv-x="1220" d="M-14 0l311 1483h268l-116 -557q94 104 270 104q188 0 290.5 -118.5t102.5 -303.5q0 -276 -150.5 -454.5t-377.5 -178.5q-111 0 -193 49.5t-110 116.5l-31 -141h-264zM352 449q0 -106 57.5 -169t147.5 -63q106 0 193.5 93t87.5 255q0 109 -58.5 167.5t-154.5 58.5 q-115 0 -194 -98.5t-79 -243.5z" />
<glyph unicode="c" horiz-adv-x="1069" d="M10 442q0 262 168 429t400 167q190 0 299.5 -99.5t136.5 -238.5l-246 -73q-14 70 -66.5 117t-142.5 47q-111 0 -194.5 -91.5t-83.5 -250.5q0 -109 61 -170.5t162 -61.5q152 0 227 148l225 -89q-59 -131 -179 -219t-290 -88q-209 0 -343 131t-134 342z" />
<glyph unicode="d" horiz-adv-x="1193" d="M14 430q0 256 147.5 429t366.5 173q211 0 287 -131l123 582h272l-266 -1262q-18 -82 -22 -178q0 -35 2 -43h-248q-2 18 -2 51q0 27 4 72q-96 -141 -270 -141q-180 2 -287 129t-107 319zM285 440q0 -104 53 -163.5t143 -59.5q109 0 185.5 97.5t76.5 258.5q0 100 -51 157.5 t-141 57.5q-123 0 -194.5 -106.5t-71.5 -241.5z" />
<glyph unicode="e" horiz-adv-x="1103" d="M14 434q0 268 163 436t378 168q207 0 324.5 -117.5t117.5 -306.5v-6q0 -87 -28 -176l-701 -2q0 -102 59.5 -167.5t166.5 -65.5q156 0 225 131l209 -105q-55 -109 -170 -181.5t-281 -72.5q-195 0 -329 128t-134 337zM297 618h442q2 14 2 25q0 68 -47 121t-143 53 q-98 0 -162.5 -55.5t-91.5 -143.5z" />
<glyph unicode="f" horiz-adv-x="743" d="M45 776l49 232h172l35 163q70 326 393 326q109 0 166 -35l-47 -223l-10 4q-10 4 -32.5 9t-49.5 5q-129 0 -160 -139l-22 -110h213l-50 -232h-213l-163 -776h-275l164 776h-170z" />
<glyph unicode="g" horiz-adv-x="1185" d="M-104 -37l243 49q0 -84 55.5 -140t161.5 -56q223 0 291 274l17 68q-76 -100 -238 -101q-186 0 -297 118t-111 300q0 231 145.5 392t362.5 161q113 0 189 -39t108 -96l25 115h266l-192 -920q-47 -223 -188.5 -365.5t-379.5 -142.5q-219 0 -338.5 115.5t-119.5 267.5z M291 492q0 -94 54 -150.5t149 -56.5q109 0 181.5 83t72.5 222q0 86 -53.5 142t-143.5 56q-113 0 -186.5 -81.5t-73.5 -214.5z" />
<glyph unicode="h" d="M-2 0l313 1483h273l-117 -557q93 108 261 108h3q147 0 231.5 -88t84.5 -229q0 -51 -13 -107l-131 -610h-272l125 584q6 31 6 59q0 70 -40 110t-114 40q-84 0 -138 -59.5t-75 -149.5l-127 -584h-270z" />
<glyph unicode="i" horiz-adv-x="567" d="M-6 0l215 1008h270l-215 -1008h-270zM244 1327q0 76 54 129t130 53q68 0 110 -42t42 -105q0 -78 -56.5 -130t-130.5 -52q-63 0 -106 42t-43 105z" />
<glyph unicode="j" horiz-adv-x="563" d="M-279 -375l46 213l4 -2q6 -2 14 -5t19.5 -5t26.5 -4t30 -2q101 3 121 114l231 1074h270l-241 -1135q-31 -143 -120 -218t-218 -75q-115 0 -183 45zM248 1327q0 76 54 129t130 53q68 0 110 -42t42 -105q0 -78 -56.5 -130t-130.5 -52q-63 0 -106 42t-43 105z" />
<glyph unicode="k" horiz-adv-x="1148" d="M-2 0l313 1483h273l-176 -828l401 353h379l-502 -428l287 -580h-305l-189 403l-153 -131l-58 -272h-270z" />
<glyph unicode="l" horiz-adv-x="563" d="M-8 0l313 1483h273l-316 -1483h-270z" />
<glyph unicode="m" horiz-adv-x="1789" d="M-2 0l176 836q20 94 21 172h264q0 -57 -6 -99q98 125 274 125q190 0 266 -151q118 151 327 151h3q143 0 233.5 -88t90.5 -233q0 -41 -11 -97l-133 -616h-270l127 592q6 27 6 53q0 68 -39 109t-113 41q-78 0 -130 -55.5t-70 -145.5l-127 -594h-271l125 592q6 27 7 55 q0 66 -39 107t-111 41q-80 0 -131 -54.5t-70 -148.5l-129 -592h-270z" />
<glyph unicode="n" d="M-2 0l176 836q20 94 21 172h264q0 -61 -6 -103q92 129 282 129q147 0 229.5 -88t82.5 -229q0 -51 -13 -107l-131 -610h-272l125 584q6 31 6 59q0 70 -40 110t-114 40q-84 0 -138 -59.5t-75 -149.5l-127 -584h-270z" />
<glyph unicode="o" horiz-adv-x="1144" d="M14 438q0 262 164 431t402 169q209 0 333.5 -133t124.5 -336q0 -248 -159.5 -424t-403.5 -176q-207 0 -334 134.5t-127 334.5zM287 451q0 -106 57 -170t150 -64q106 0 189 91t83 251q0 109 -56.5 170.5t-150.5 61.5q-117 0 -194.5 -97.5t-77.5 -242.5z" />
<glyph unicode="p" horiz-adv-x="1216" d="M-102 -389l260 1225q20 94 20 172h264q0 -66 -6 -105q43 57 119 91t164 34q186 0 287.5 -116.5t101.5 -303.5q0 -276 -148.5 -454.5t-375.5 -178.5q-109 0 -191 41t-119 105l-106 -510h-270zM350 449q0 -111 57.5 -171.5t149.5 -60.5q106 0 191.5 93t85.5 255 q0 109 -57.5 167.5t-151.5 58.5q-117 0 -196 -98.5t-79 -243.5z" />
<glyph unicode="q" horiz-adv-x="1191" d="M10 430q0 256 147.5 429t366.5 173q217 0 295 -137l25 113h264l-297 -1399h-270l98 465q-92 -92 -231 -92q-180 2 -289 130t-109 318zM281 440q0 -102 54 -162.5t148 -60.5q109 0 184.5 96.5t75.5 255.5q0 102 -51 159.5t-145 57.5q-121 0 -193.5 -105.5t-72.5 -240.5z " />
<glyph unicode="r" horiz-adv-x="817" d="M-2 0l176 836q23 104 23 172h264q0 -76 -12 -125q92 131 280 131q41 0 86 -8l-57 -275q-57 14 -99 14q-231 0 -290 -280l-101 -465h-270z" />
<glyph unicode="s" horiz-adv-x="909" d="M-31 309l232 41q-2 -8 -2 -18q0 -66 44 -112t115 -46q61 0 93 29.5t32 70.5q0 63 -75 99l-113 49q-215 92 -215 283q0 137 107.5 235t277.5 98q106 0 183 -30.5t116 -82t56.5 -99.5t19.5 -97l-236 -37q0 57 -34.5 100.5t-112.5 43.5q-53 0 -87 -29t-34 -72q0 -59 63 -86 l129 -55q223 -96 224 -295q0 -129 -102.5 -229.5t-287.5 -100.5q-119 0 -201.5 36t-121.5 94.5t-54.5 108.5t-15.5 101z" />
<glyph unicode="t" horiz-adv-x="765" d="M37 766l51 242h41q160 0 197 163l30 138h246l-65 -301h196l-51 -242h-197l-88 -420q-6 -23 -6 -41q0 -86 109 -86q39 0 71 8l-47 -217q-53 -22 -129 -22q-131 0 -206.5 69.5t-75.5 190.5q0 41 8 80l94 438h-178z" />
<glyph unicode="u" horiz-adv-x="1161" d="M45 305q0 57 21 150l118 553h271l-117 -545q-14 -63 -14 -96q0 -70 37.5 -111t113.5 -41q80 0 132 57.5t73 149.5l127 586h270l-168 -803q-22 -96 -22 -175v-7v-23h-260q-2 12 -2 43t2 61q-39 -61 -110 -95t-142 -34q-156 0 -243 92.5t-87 237.5z" />
<glyph unicode="v" horiz-adv-x="1052" d="M63 1008h281l88 -674l361 674h303l-584 -1008h-270z" />
<glyph unicode="w" horiz-adv-x="1646" d="M74 1008h264l51 -643l334 643h287l77 -646l310 646h282l-518 -1008h-268l-86 686l-356 -686h-279z" />
<glyph unicode="x" horiz-adv-x="1056" d="M-152 0l478 516l-263 492h297l146 -295l258 295h332l-471 -508q18 -33 135 -250t135 -250h-299l-152 303l-268 -303h-328z" />
<glyph unicode="y" horiz-adv-x="1073" d="M-78 -389l348 549l-221 848h287l135 -566l340 566h305l-893 -1397h-301z" />
<glyph unicode="z" horiz-adv-x="1005" d="M-68 0l52 242l579 530h-450l49 236h809l-49 -230l-598 -542h493l-49 -236h-836z" />
<glyph unicode="{" horiz-adv-x="755" d="M43 553l47 229q94 0 161.5 46t88.5 143l61 295q45 215 156 304t303 89h84l-43 -207h-61q-88 0 -140.5 -42t-72.5 -140l-74 -344q-49 -223 -258 -260q152 -45 151 -209q0 -31 -6 -64l-67 -313q-6 -33 -6 -64q0 -133 149 -133h51l-43 -207h-59q-156 0 -242 78t-86 221 q0 57 15 117l59 275q6 29 6 53q0 133 -174 133z" />
<glyph unicode="|" horiz-adv-x="575" d="M-53 -324l420 1983h229l-422 -1983h-227z" />
<glyph unicode="}" horiz-adv-x="759" d="M-211 -324l45 207h57q176 0 218 191l73 344q20 98 87 165.5t171 88.5q-74 20 -113.5 73.5t-39.5 126.5q0 31 6 62l69 332q6 37 7 63q0 123 -146 123h-55l43 207h65q150 0 236 -75t86 -216q0 -53 -12 -115l-64 -282q-6 -29 -6 -53q0 -138 176 -138l-49 -229 q-209 0 -248 -186l-63 -293q-88 -395 -471 -396h-72z" />
<glyph unicode="~" horiz-adv-x="1337" d="M94 571q121 215 336 215q111 0 217 -57l96 -53q51 -29 103 -29q114 1 186 105l150 -121q-57 -102 -144.5 -157.5t-191.5 -55.5q-113 0 -219 59l-97 53q-51 27 -104 27q-106 0 -180 -106z" />
<glyph unicode="&#xa1;" horiz-adv-x="522" d="M-135 -430l278 1010h199l-147 -1010h-330zM133 858q0 74 53.5 127t122.5 53q66 0 108 -42t42 -103q0 -74 -52.5 -127t-125.5 -53q-66 0 -107 42t-41 103z" />
<glyph unicode="&#xa2;" horiz-adv-x="1132" d="M68 600q0 227 141 380t346 173l37 176h209l-41 -192q117 -33 185.5 -115t86.5 -182l-237 -68q-12 63 -62.5 107.5t-136.5 44.5q-109 0 -189.5 -84t-80.5 -234q0 -100 59 -157.5t156 -57.5q150 0 221 137l215 -82q-53 -119 -162.5 -199.5t-261.5 -88.5l-33 -158h-209 l39 186q-131 45 -206.5 156t-75.5 258z" />
<glyph unicode="&#xa3;" horiz-adv-x="1220" d="M-18 0l51 246q123 23 195.5 111.5t82.5 201.5h-205l46 209h137q-14 72 -15 133q0 193 123 324t334 131q199 0 297 -99.5t98 -246.5q0 -39 -6 -58l-246 -26q4 16 5 47q0 68 -40 111.5t-116 43.5q-84 0 -138.5 -57t-54.5 -170q0 -43 17 -133h362l-45 -209h-295 q-8 -106 -65.5 -193t-153.5 -128h330q84 0 134 49t63 127l235 -43q-29 -168 -142.5 -269.5t-277.5 -101.5h-710z" />
<glyph unicode="&#xa4;" horiz-adv-x="1261" d="M66 133l147 150q-59 96 -59 219q0 121 59 221l-147 149l163 164l152 -153q100 55 215 55t211 -53l149 151l166 -164l-145 -145q63 -102 63 -225q0 -125 -63 -223l145 -146l-164 -164l-149 150q-96 -53 -213 -53q-119 0 -217 55l-150 -152zM381 502q0 -94 61.5 -154.5 t153.5 -60.5q94 0 154.5 60.5t60.5 154.5t-60.5 154.5t-154.5 60.5q-92 0 -153.5 -60.5t-61.5 -154.5z" />
<glyph unicode="&#xa5;" horiz-adv-x="1267" d="M55 276l43 193h351l30 141h-352l41 193h221l-199 526h295l170 -502l373 502h307l-420 -526h236l-41 -193h-365l-30 -141h366l-43 -193h-364l-58 -276h-266l58 276h-353z" />
<glyph unicode="&#xa6;" horiz-adv-x="575" d="M-53 -324l172 816h229l-174 -816h-227zM195 844l172 815h229l-174 -815h-227z" />
<glyph unicode="&#xa7;" horiz-adv-x="1171" d="M-16 -76q0 35 6 74l264 18q-8 -31 -8 -61q0 -74 45 -114t121 -40q68 0 117 43t49 113q0 72 -62 115l-186 129q-102 72 -160.5 147.5t-58.5 175.5q0 211 221 297q-102 100 -103 248q0 182 142.5 298t320.5 116q193 0 301.5 -100.5t108.5 -252.5q0 -35 -6 -71l-265 -19 q6 18 7 62q0 72 -44 111.5t-120 39.5q-70 0 -119 -44t-49 -111q0 -70 63 -115l185 -129q106 -76 162.5 -147.5t56.5 -171.5q0 -115 -63.5 -191t-155.5 -111q102 -102 102 -239q0 -188 -141.5 -305t-323.5 -117q-190 0 -298.5 100.5t-108.5 251.5zM373 575q0 -68 61 -108 l182 -131q96 51 97 143q-1 66 -62 109l-184 131q-94 -51 -94 -144z" />
<glyph unicode="&#xa8;" horiz-adv-x="792" d="M-27 1272q0 63 47.5 111.5t112.5 48.5q57 0 94 -39t37 -95q0 -66 -50 -110.5t-112 -44.5q-55 0 -92 38t-37 91zM403 1272q0 63 47.5 111.5t112.5 48.5q57 0 94 -39t37 -95q0 -66 -50 -110.5t-112 -44.5q-55 0 -92 38t-37 91z" />
<glyph unicode="&#xa9;" horiz-adv-x="1662" d="M63 725q0 313 220.5 536.5t533.5 223.5t535.5 -223.5t222.5 -536.5q0 -311 -222.5 -534.5t-535.5 -223.5t-533.5 222.5t-220.5 535.5zM238 725q0 -250 167.5 -423t411.5 -173t412 173t168 423q0 252 -168 425t-412 173t-411.5 -173t-167.5 -425zM432 678q0 201 127 326.5 t303 125.5q145 0 228.5 -75t103.5 -181l-184 -55q-29 127 -162 127q-84 0 -148.5 -69.5t-64.5 -192.5q0 -84 47 -131t125 -47q119 0 176 112l166 -67q-45 -98 -136 -166t-218 -68q-160 0 -261.5 103.5t-101.5 257.5z" />
<glyph unicode="&#xaa;" horiz-adv-x="931" d="M100 924q0 182 104.5 302t256.5 120q61 0 107 -18.5t64.5 -37t29.5 -39.5l18 76h203l-121 -561q-14 -57 -14 -115q0 -16 2 -33h-191q-2 12 -2 31q0 27 6 53q-70 -96 -186 -96q-125 0 -201 91t-76 227zM309 934q0 -70 36 -109t93 -39q68 0 118 61.5t50 168.5 q0 68 -35 104.5t-92 36.5q-80 0 -125 -67.5t-45 -155.5z" />
<glyph unicode="&#xab;" horiz-adv-x="1064" d="M12 610l361 398h272l-379 -414l197 -387h-246zM461 610l360 398h273l-379 -414l196 -387h-245z" />
<glyph unicode="&#xac;" horiz-adv-x="1282" d="M104 678v225h1002v-624h-234v399h-768z" />
<glyph unicode="&#xad;" horiz-adv-x="747" d="M23 487l51 242h596l-54 -242h-593z" />
<glyph unicode="&#xae;" horiz-adv-x="1662" d="M63 725q0 313 220.5 536.5t533.5 223.5t535.5 -223.5t222.5 -536.5q0 -311 -222.5 -534.5t-535.5 -223.5t-533.5 222.5t-220.5 535.5zM238 725q0 -250 167.5 -423t411.5 -173t412 173t168 423q0 252 -168 425t-412 173t-411.5 -173t-167.5 -425zM487 317l175 818h296 q106 0 174 -68t68 -164q0 -100 -59.5 -177t-157.5 -105l107 -299h-199l-90 280h-62l-59 -285h-193zM772 758h88q63 0 105.5 35.5t42.5 97.5q0 86 -103 86h-84z" />
<glyph unicode="&#xaf;" horiz-adv-x="649" d="M-47 1182l43 198h575l-41 -198h-577z" />
<glyph unicode="&#xb0;" horiz-adv-x="798" d="M94 991q0 156 110.5 262.5t258.5 106.5q129 0 216 -88t87 -215q0 -156 -113 -261.5t-256 -105.5q-131 0 -217 87t-86 214zM297 1004q0 -53 32 -87t85 -34q59 0 104 45t45 119q0 55 -31.5 87.5t-87.5 32.5q-57 0 -102 -46t-45 -117z" />
<glyph unicode="&#xb1;" horiz-adv-x="1257" d="M133 90v223h959v-223h-959zM133 641v221h365v252h229v-252h365v-221h-365v-252h-229v252h-365z" />
<glyph unicode="&#xb2;" horiz-adv-x="784" d="M88 698q10 257 254 361l133 57q96 41 96 105q0 31 -20.5 55t-61.5 24q-111 0 -110 -129l-189 13q0 123 84 202.5t221.5 79.5t211 -65.5t73.5 -163.5q0 -172 -217 -264l-155 -66q-31 -14 -37 -35h329l-36 -174h-576z" />
<glyph unicode="&#xb3;" horiz-adv-x="876" d="M135 930q0 23 2 35l191 10q-2 -8 -2 -17q0 -45 29.5 -75.5t80.5 -30.5t82 28.5t31 75.5q0 39 -27.5 61.5t-68.5 22.5q-25 0 -50 -8l-53 135l221 115h-338l37 170h574l-39 -195l-209 -108q72 -14 116 -68.5t44 -130.5q0 -109 -91.5 -188.5t-232.5 -79.5q-133 0 -215 72.5 t-82 175.5z" />
<glyph unicode="&#xb4;" horiz-adv-x="567" d="M-63 1128l245 308h332l-344 -308h-233z" />
<glyph unicode="&#xb5;" horiz-adv-x="1226" d="M109 -389v1397h272v-582q0 -90 47 -146.5t137 -56.5q88 0 139.5 54.5t51.5 144.5v586h272v-826q0 -90 10 -182h-260q-8 41 -8 109q-37 -68 -114.5 -102t-163.5 -34q-55 0 -111 21v-383h-272z" />
<glyph unicode="&#xb6;" horiz-adv-x="1370" d="M104 963q0 154 87.5 268.5t216.5 167.5t276 53h797l-45 -209h-199l-348 -1640h-217l348 1640h-197l-348 -1640h-215l217 1013h-18q-152 0 -253.5 99.5t-101.5 247.5z" />
<glyph unicode="&#xb7;" horiz-adv-x="579" d="M94 616q0 76 57.5 133.5t135.5 57.5q70 0 113.5 -45t43.5 -109q0 -82 -56 -137t-134 -55q-72 0 -116 44.5t-44 110.5z" />
<glyph unicode="&#xb8;" horiz-adv-x="573" d="M-102 -330l112 94q57 -92 150 -92q35 0 59.5 15.5t24.5 44.5q0 59 -82 59q-14 0 -35 -4l-49 102l141 138h189l-142 -136q72 -8 114 -52t42 -103q0 -82 -66.5 -143.5t-189.5 -61.5q-102 0 -175 48t-93 91z" />
<glyph unicode="&#xb9;" horiz-adv-x="622" d="M121 1167l29 136q86 2 150.5 45t88.5 104h182l-159 -752h-209l100 467h-182z" />
<glyph unicode="&#xba;" horiz-adv-x="880" d="M100 930q0 184 117 302t285 118q147 0 237 -94.5t90 -237.5q0 -174 -113.5 -297t-287.5 -123q-145 0 -236.5 94t-91.5 238zM309 938q0 -70 38 -110t95 -40q70 0 124.5 57.5t54.5 164.5q0 72 -36.5 110.5t-99.5 40.5q-76 0 -126 -65.5t-50 -157.5z" />
<glyph unicode="&#xbb;" horiz-adv-x="1060" d="M-90 207l377 414l-197 387h246l207 -406l-363 -395h-270zM367 207l376 414l-196 387h246l206 -406l-362 -395h-270z" />
<glyph unicode="&#xbc;" horiz-adv-x="1662" d="M25 0l1214 1329h248l-1215 -1329h-247zM111 1044l28 136q86 2 150.5 45t89.5 104h182l-160 -751h-208l100 466h-182zM784 150l43 212l416 392h227l-94 -445h125l-35 -159h-125q0 -2 -30 -150h-207l33 150h-353zM981 309h188l52 228z" />
<glyph unicode="&#xbd;" horiz-adv-x="1722" d="M25 0l1214 1329h248l-1215 -1329h-247zM113 1044l28 136q86 2 150.5 45t89.5 104h182l-160 -751h-208l100 466h-182zM891 0q10 256 254 360l133 58q96 41 96 104q0 31 -20.5 55.5t-61.5 24.5q-111 0 -110 -129l-189 12q0 123 84 203t221.5 80t211 -65.5t73.5 -163.5 q0 -172 -217 -265l-156 -65q-31 -14 -36 -35h329l-37 -174h-575z" />
<glyph unicode="&#xbe;" horiz-adv-x="1878" d="M94 807q0 23 2 35l191 10q-2 -8 -2 -16q0 -45 29.5 -76t80.5 -31t82 28.5t31 76.5q0 39 -27.5 61.5t-68.5 22.5q-25 -1 -50 -9l-53 135l221 115h-337l36 170h574l-39 -194l-209 -109q72 -14 116 -68.5t44 -130.5q0 -109 -91.5 -188.5t-232.5 -79.5q-133 0 -215 73 t-82 175zM240 0l1214 1329h248l-1215 -1329h-247zM999 150l43 212l416 392h228l-95 -445h125l-35 -159h-125q0 -2 -30 -150h-207l33 150h-353zM1196 309h188l52 228z" />
<glyph unicode="&#xbf;" horiz-adv-x="915" d="M-154 -98q0 268 279 426l96 55q134 76 146 199h219q-4 -262 -224 -385l-114 -66q-119 -68 -119 -190q0 -66 45 -113t133 -47q113 0 174.5 78t61.5 188l254 -29q-4 -207 -144.5 -343t-363.5 -136q-209 0 -326 107.5t-117 255.5zM344 858q0 74 53.5 127t122.5 53 q66 0 108 -42t42 -103q0 -74 -53.5 -127t-127.5 -53q-66 0 -105.5 42t-39.5 103z" />
<glyph unicode="&#xc0;" horiz-adv-x="1392" d="M-150 0l850 1452h324l231 -1452h-292l-48 332h-561l-186 -332h-318zM500 590h379l-76 545zM518 1815h318l155 -261h-235z" />
<glyph unicode="&#xc1;" horiz-adv-x="1392" d="M-150 0l850 1452h324l231 -1452h-292l-48 332h-561l-186 -332h-318zM500 590h379l-76 545zM733 1554l262 261h346l-346 -261h-262z" />
<glyph unicode="&#xc2;" horiz-adv-x="1392" d="M-150 0l850 1452h324l231 -1452h-292l-48 332h-561l-186 -332h-318zM477 1554l299 261h281l192 -261h-237l-111 134l-168 -134h-256zM500 590h379l-76 545z" />
<glyph unicode="&#xc3;" horiz-adv-x="1392" d="M-150 0l850 1452h324l231 -1452h-292l-48 332h-561l-186 -332h-318zM500 590h379l-76 545zM502 1550q14 145 85.5 212t172.5 67q70 0 151 -51l7 -4q57 -39 90 -39q61 0 75 88h174q-41 -281 -251 -281q-72 0 -150 49l-10 6q-70 41 -96 41q-59 0 -74 -88h-174z" />
<glyph unicode="&#xc4;" horiz-adv-x="1392" d="M-150 0l850 1452h324l231 -1452h-292l-48 332h-561l-186 -332h-318zM410 1669q0 63 48 113.5t115 50.5q59 0 96.5 -38t37.5 -93q0 -70 -48.5 -117t-113.5 -47q-59 0 -97 37t-38 94zM500 590h379l-76 545zM1063 1669q0 63 48 113.5t116 50.5q59 0 96 -38t37 -93 q0 -70 -48 -117t-114 -47q-59 0 -97 37t-38 94z" />
<glyph unicode="&#xc5;" horiz-adv-x="1392" d="M-150 0l801 1368q-57 64 -57 156q0 123 90 210t213 87q109 0 183.5 -70t74.5 -174q0 -139 -115 -229l215 -1348h-292l-48 332h-561l-186 -332h-318zM500 590h379l-76 540zM768 1540q0 -39 26.5 -63.5t67.5 -24.5q45 0 79 30.5t34 80.5q0 39 -27.5 64.5t-68.5 25.5 q-43 0 -77 -33t-34 -80z" />
<glyph unicode="&#xc6;" horiz-adv-x="2162" d="M-152 0l1268 1452h1084l-56 -266h-622l-70 -332h563l-53 -252h-563l-72 -336h623l-58 -266h-905l72 338h-563l-287 -338h-361zM698 575h412l137 644z" />
<glyph unicode="&#xc7;" horiz-adv-x="1470" d="M66 627q0 262 115.5 460.5t292.5 296t382 99.5q141 0 254 -41t183.5 -110.5t112.5 -149.5t58 -168l-274 -82q-23 115 -111 198.5t-243 83.5q-201 0 -341.5 -160.5t-140.5 -410.5q0 -180 102.5 -291.5t274.5 -111.5q264 0 383 272l254 -102q-72 -174 -223.5 -299 t-376.5 -142l-82 -78q72 -8 114 -52t42 -103q0 -82 -66.5 -143.5t-189.5 -61.5q-102 0 -175 48t-94 91l113 94q57 -92 150 -92q35 0 59.5 15.5t24.5 44.5q0 59 -82 59q-14 0 -35 -4l-49 102l90 88q-236 37 -379 215.5t-143 434.5z" />
<glyph unicode="&#xc8;" d="M12 0l307 1452h906l-58 -266h-620l-72 -332h563l-53 -252h-563l-72 -336h623l-55 -266h-906zM475 1815h318l155 -261h-235z" />
<glyph unicode="&#xc9;" d="M12 0l307 1452h906l-58 -266h-620l-72 -332h563l-53 -252h-563l-72 -336h623l-55 -266h-906zM614 1554l263 261h346l-346 -261h-263z" />
<glyph unicode="&#xca;" d="M12 0l307 1452h906l-58 -266h-620l-72 -332h563l-53 -252h-563l-72 -336h623l-55 -266h-906zM399 1554l299 261h281l192 -261h-237l-111 134l-168 -134h-256z" />
<glyph unicode="&#xcb;" d="M12 0l307 1452h906l-58 -266h-620l-72 -332h563l-53 -252h-563l-72 -336h623l-55 -266h-906zM438 1669q0 66 48.5 114t115.5 48q57 0 94 -37t37 -92q0 -70 -48 -116t-114 -46q-59 0 -96 36t-37 93zM879 1669q0 66 48 114t115 48q57 0 94.5 -37t37.5 -92q0 -70 -48.5 -116 t-113.5 -46q-59 0 -96 36t-37 93z" />
<glyph unicode="&#xcc;" horiz-adv-x="618" d="M12 0l307 1452h287l-307 -1452h-287zM139 1815h318l155 -261h-235z" />
<glyph unicode="&#xcd;" horiz-adv-x="618" d="M12 0l307 1452h287l-307 -1452h-287zM346 1554l262 261h346l-346 -261h-262z" />
<glyph unicode="&#xce;" horiz-adv-x="618" d="M12 0l307 1452h287l-307 -1452h-287zM92 1554l299 261h281l192 -261h-237l-111 134l-168 -134h-256z" />
<glyph unicode="&#xcf;" horiz-adv-x="618" d="M12 0l307 1452h287l-307 -1452h-287zM166 1669q0 63 46 110.5t112 47.5q53 0 89 -37t36 -88q0 -68 -46.5 -112t-109.5 -44q-55 0 -91 35t-36 88zM545 1669q0 63 46 110.5t111 47.5q53 0 89 -37t36 -88q0 -68 -46 -112t-109 -44q-55 0 -91 35t-36 88z" />
<glyph unicode="&#xd0;" horiz-adv-x="1488" d="M18 641l43 209h175l126 602h431q293 0 461.5 -165t168.5 -439q0 -199 -65.5 -362.5t-175 -268t-247.5 -161t-290 -56.5h-588l136 641h-175zM391 266h264q188 0 334 153.5t146 401.5q0 174 -93.5 271.5t-273.5 97.5h-180l-72 -340h305l-43 -209h-307z" />
<glyph unicode="&#xd1;" horiz-adv-x="1531" d="M12 0l307 1452h326l385 -969l207 969h283l-308 -1452h-282l-420 1026l-217 -1026h-281zM586 1550q14 145 85.5 212t172.5 67q70 0 151 -51l6 -4q59 -39 91 -39q61 0 75 88h174q-41 -281 -251 -281q-72 0 -150 49l-10 6q-70 41 -96 41q-59 0 -74 -88h-174z" />
<glyph unicode="&#xd2;" horiz-adv-x="1552" d="M66 618q0 201 66.5 367t176 273.5t248.5 166t289 58.5q289 0 465 -179.5t176 -469.5q0 -201 -66.5 -367t-176 -273.5t-248 -166t-287.5 -58.5q-289 0 -466 180t-177 469zM354 639q0 -182 100.5 -289.5t266.5 -107.5q199 0 336 161.5t139 413.5q0 182 -98.5 289.5 t-268.5 107.5q-201 0 -338 -167.5t-137 -407.5zM567 1815h318l155 -261h-235z" />
<glyph unicode="&#xd3;" horiz-adv-x="1552" d="M66 618q0 201 66.5 367t176 273.5t248.5 166t289 58.5q289 0 465 -179.5t176 -469.5q0 -201 -66.5 -367t-176 -273.5t-248 -166t-287.5 -58.5q-289 0 -466 180t-177 469zM354 639q0 -182 100.5 -289.5t266.5 -107.5q199 0 336 161.5t139 413.5q0 182 -98.5 289.5 t-268.5 107.5q-201 0 -338 -167.5t-137 -407.5zM756 1554l262 261h346l-346 -261h-262z" />
<glyph unicode="&#xd4;" horiz-adv-x="1552" d="M66 618q0 201 66.5 367t176 273.5t248.5 166t289 58.5q289 0 465 -179.5t176 -469.5q0 -201 -66.5 -367t-176 -273.5t-248 -166t-287.5 -58.5q-289 0 -466 180t-177 469zM354 639q0 -182 100.5 -289.5t266.5 -107.5q199 0 336 161.5t139 413.5q0 182 -98.5 289.5 t-268.5 107.5q-201 0 -338 -167.5t-137 -407.5zM516 1554l299 261h281l192 -261h-237l-111 134l-168 -134h-256z" />
<glyph unicode="&#xd5;" horiz-adv-x="1552" d="M66 618q0 201 66.5 367t176 273.5t248.5 166t289 58.5q289 0 465 -179.5t176 -469.5q0 -201 -66.5 -367t-176 -273.5t-248 -166t-287.5 -58.5q-289 0 -466 180t-177 469zM354 639q0 -182 100.5 -289.5t266.5 -107.5q199 0 336 161.5t139 413.5q0 182 -98.5 289.5 t-268.5 107.5q-201 0 -338 -167.5t-137 -407.5zM563 1550q14 145 86 212t172 67q70 0 152 -51l6 -4q57 -39 90 -39q61 0 76 88h174q-41 -281 -252 -281q-72 0 -149 49l-11 6q-70 41 -96 41q-59 0 -74 -88h-174z" />
<glyph unicode="&#xd6;" horiz-adv-x="1552" d="M66 618q0 201 66.5 367t176 273.5t248.5 166t289 58.5q289 0 465 -179.5t176 -469.5q0 -201 -66.5 -367t-176 -273.5t-248 -166t-287.5 -58.5q-289 0 -466 180t-177 469zM354 639q0 -182 100.5 -289.5t266.5 -107.5q199 0 336 161.5t139 413.5q0 182 -98.5 289.5 t-268.5 107.5q-201 0 -338 -167.5t-137 -407.5zM416 1669q0 63 48 113.5t116 50.5q59 0 96 -38t37 -93q0 -70 -48.5 -117t-113.5 -47q-59 0 -97 37t-38 94zM1151 1669q0 63 48 113.5t116 50.5q59 0 96 -38t37 -93q0 -70 -48 -117t-114 -47q-59 0 -97 37t-38 94z" />
<glyph unicode="&#xd7;" horiz-adv-x="1173" d="M86 260l338 344l-338 344l164 162l336 -342l338 342l163 -160l-339 -346l339 -344l-161 -164l-340 344l-338 -342z" />
<glyph unicode="&#xd8;" horiz-adv-x="1552" d="M29 45l155 174q-118 168 -118 399q0 201 66.5 367t176 273.5t248.5 166t289 58.5q213 0 371 -103l153 172l164 -143l-160 -180q113 -160 113 -395q0 -201 -66.5 -367t-176 -273.5t-248 -166t-287.5 -58.5q-209 0 -365 99l-147 -166zM354 639q0 -106 35 -188l637 714 q-88 49 -197 49q-201 0 -338 -167.5t-137 -407.5zM537 285q78 -43 184 -43q199 0 336 161.5t139 413.5q0 100 -31 176z" />
<glyph unicode="&#xd9;" horiz-adv-x="1384" d="M94 434q0 63 17 141l184 877h283l-187 -889q-10 -55 -10 -92q0 -106 60.5 -166.5t185.5 -60.5q225 0 280 262l199 946h287l-211 -993q-49 -236 -205 -363t-373 -127q-231 0 -370.5 126t-139.5 339zM539 1815h317l156 -261h-236z" />
<glyph unicode="&#xda;" horiz-adv-x="1384" d="M94 434q0 63 17 141l184 877h283l-187 -889q-10 -55 -10 -92q0 -106 60.5 -166.5t185.5 -60.5q225 0 280 262l199 946h287l-211 -993q-49 -236 -205 -363t-373 -127q-231 0 -370.5 126t-139.5 339zM678 1554l262 261h346l-346 -261h-262z" />
<glyph unicode="&#xdb;" horiz-adv-x="1384" d="M94 434q0 63 17 141l184 877h283l-187 -889q-10 -55 -10 -92q0 -106 60.5 -166.5t185.5 -60.5q225 0 280 262l199 946h287l-211 -993q-49 -236 -205 -363t-373 -127q-231 0 -370.5 126t-139.5 339zM467 1554l299 261h281l192 -261h-238l-110 134l-168 -134h-256z" />
<glyph unicode="&#xdc;" horiz-adv-x="1384" d="M94 434q0 63 17 141l184 877h283l-187 -889q-10 -55 -10 -92q0 -106 60.5 -166.5t185.5 -60.5q225 0 280 262l199 946h287l-211 -993q-49 -236 -205 -363t-373 -127q-231 0 -370.5 126t-139.5 339zM479 1669q0 63 48 113.5t116 50.5q59 0 96 -38t37 -93q0 -70 -48 -117 t-114 -47q-59 0 -97 37t-38 94zM969 1669q0 63 48 113.5t116 50.5q59 0 96 -38t37 -93q0 -70 -48.5 -117t-113.5 -47q-59 0 -97 37t-38 94z" />
<glyph unicode="&#xdd;" horiz-adv-x="1282" d="M164 1452h299l207 -569l403 569h340l-645 -844l-129 -608h-283l129 612zM621 1554l262 261h346l-346 -261h-262z" />
<glyph unicode="&#xde;" horiz-adv-x="1198" d="M12 0l307 1452h285l-55 -264h192q197 0 318 -110.5t121 -289.5q0 -229 -156 -365t-406 -136h-260l-61 -287h-285zM410 530h206q123 0 197 60.5t76 175.5q0 176 -211 176h-178z" />
<glyph unicode="&#xdf;" horiz-adv-x="1226" d="M-14 0l219 1051q45 217 187.5 324.5t328.5 107.5q205 0 323.5 -104.5t118.5 -248.5q0 -246 -245 -358l-46 -20q-65 -31 -65 -74q0 -33 57 -72l54 -35q162 -109 161 -272q0 -119 -96 -225.5t-278 -106.5q-156 0 -242 83t-86 200q0 16 4 49l225 18q-4 -10 -4 -28 q0 -115 113 -115q51 0 78.5 28.5t27.5 67.5q0 57 -71 103l-52 33q-164 102 -163 241q0 180 184 273l45 22q68 35 99.5 72t31.5 92q0 53 -48 95t-140 42q-193 0 -242 -239l-211 -1004h-268z" />
<glyph unicode="&#xe0;" d="M14 430q0 256 147.5 429t366.5 173q125 0 196 -43t97 -96l25 115h264l-166 -787q-18 -88 -18 -182q0 -20 2 -39h-252q-2 16 -2 47q0 27 4 76q-96 -141 -270 -141q-180 0 -287 128t-107 320zM285 440q0 -104 53 -163.5t143 -59.5q109 0 185.5 97.5t76.5 258.5 q0 100 -51 157.5t-141 57.5q-123 0 -194.5 -106.5t-71.5 -241.5zM301 1436h303l119 -308h-211z" />
<glyph unicode="&#xe1;" d="M14 430q0 256 147.5 429t366.5 173q125 0 196 -43t97 -96l25 115h264l-166 -787q-18 -88 -18 -182q0 -20 2 -39h-252q-2 16 -2 47q0 27 4 76q-96 -141 -270 -141q-180 0 -287 128t-107 320zM285 440q0 -104 53 -163.5t143 -59.5q109 0 185.5 97.5t76.5 258.5 q0 100 -51 157.5t-141 57.5q-123 0 -194.5 -106.5t-71.5 -241.5zM477 1128l246 308h332l-344 -308h-234z" />
<glyph unicode="&#xe2;" d="M14 430q0 256 147.5 429t366.5 173q125 0 196 -43t97 -96l25 115h264l-166 -787q-18 -88 -18 -182q0 -20 2 -39h-252q-2 16 -2 47q0 27 4 76q-96 -141 -270 -141q-180 0 -287 128t-107 320zM260 1130l295 302h270l164 -302h-213l-108 154l-174 -154h-234zM285 440 q0 -104 53 -163.5t143 -59.5q109 0 185.5 97.5t76.5 258.5q0 100 -51 157.5t-141 57.5q-123 0 -194.5 -106.5t-71.5 -241.5z" />
<glyph unicode="&#xe3;" d="M14 430q0 256 147.5 429t366.5 173q125 0 196 -43t97 -96l25 115h264l-166 -787q-18 -88 -18 -182q0 -20 2 -39h-252q-2 16 -2 47q0 27 4 76q-96 -141 -270 -141q-180 0 -287 128t-107 320zM270 1139q16 147 91 219t178 72q76 0 147 -48l10 -6q57 -39 92 -39q68 0 84 90 h177q-23 -150 -92.5 -221t-168.5 -71q-76 0 -149 47l-16 10q-59 35 -91 35q-70 0 -86 -88h-176zM285 440q0 -104 53 -163.5t143 -59.5q109 0 185.5 97.5t76.5 258.5q0 100 -51 157.5t-141 57.5q-123 0 -194.5 -106.5t-71.5 -241.5z" />
<glyph unicode="&#xe4;" d="M14 430q0 256 147.5 429t366.5 173q125 0 196 -43t97 -96l25 115h264l-166 -787q-18 -88 -18 -182q0 -20 2 -39h-252q-2 16 -2 47q0 27 4 76q-96 -141 -270 -141q-180 0 -287 128t-107 320zM285 440q0 -104 53 -163.5t143 -59.5q109 0 185.5 97.5t76.5 258.5 q0 100 -51 157.5t-141 57.5q-123 0 -194.5 -106.5t-71.5 -241.5zM299 1272q0 63 47 111.5t113 48.5q57 0 94 -39t37 -95q0 -66 -50.5 -110.5t-111.5 -44.5q-55 0 -92 38t-37 91zM729 1272q0 63 47 111.5t113 48.5q57 0 94 -39t37 -95q0 -66 -50 -110.5t-112 -44.5 q-55 0 -92 38t-37 91z" />
<glyph unicode="&#xe5;" d="M14 430q0 256 147.5 429t366.5 173q125 0 196 -43t97 -96l25 115h264l-166 -787q-18 -88 -18 -182q0 -20 2 -39h-252q-2 16 -2 47q0 27 4 76q-96 -141 -270 -141q-180 0 -287 128t-107 320zM285 440q0 -104 53 -163.5t143 -59.5q109 0 185.5 97.5t76.5 258.5 q0 100 -51 157.5t-141 57.5q-123 0 -194.5 -106.5t-71.5 -241.5zM426 1317q0 106 77 177t175 71q92 0 154.5 -57.5t62.5 -147.5q0 -104 -77 -176t-177 -72q-90 0 -152.5 58.5t-62.5 146.5zM573 1329q0 -33 21.5 -53.5t56.5 -20.5q37 0 63.5 26t26.5 65q0 33 -21.5 53 t-53.5 20q-37 0 -65 -25.5t-28 -64.5z" />
<glyph unicode="&#xe6;" horiz-adv-x="1726" d="M-18 264q0 145 97 233.5t253 94.5l266 10q92 4 92 90q0 51 -46 89t-132 38q-76 0 -129 -41t-72 -102l-225 74q37 119 155.5 203.5t286.5 84.5q225 0 328 -123q139 123 324 123q207 0 323.5 -117.5t116.5 -306.5q0 -100 -29 -182h-694q-2 -6 -2 -14q2 -96 62.5 -158.5 t162.5 -62.5q78 0 136.5 36.5t86.5 94.5l207 -105q-55 -109 -169.5 -181.5t-278.5 -72.5q-246 0 -369 187q-139 -182 -375 -183q-178 0 -277 84t-99 207zM250 285q0 -51 38 -81t97 -30q82 0 156.5 58.5t93.5 173.5l4 26l-242 -10q-61 -4 -104 -39t-43 -98zM924 618h438 q2 4 2 25q0 68 -46 121t-142 53q-98 0 -162 -55t-90 -144z" />
<glyph unicode="&#xe7;" horiz-adv-x="1069" d="M10 442q0 262 168 429t400 167q190 0 299.5 -99t136.5 -239l-246 -73q-14 70 -66.5 117t-142.5 47q-111 0 -194.5 -91.5t-83.5 -250.5q0 -109 61 -170.5t162 -61.5q152 0 227 148l225 -89q-55 -125 -165.5 -210.5t-264.5 -96.5l-80 -78q72 -8 114 -52t42 -103 q0 -82 -66.5 -143.5t-189.5 -61.5q-102 0 -175 48t-93 91l112 94q57 -92 150 -92q35 0 59.5 15.5t24.5 44.5q0 59 -82 59q-14 0 -35 -4l-49 102l98 97q-160 37 -253 160.5t-93 295.5z" />
<glyph unicode="&#xe8;" horiz-adv-x="1103" d="M14 434q0 268 163 436t378 168q207 0 324.5 -117.5t117.5 -306.5q1 -90 -28 -182l-701 -2q0 -102 59.5 -167.5t166.5 -65.5q156 0 225 131l209 -105q-55 -109 -170 -181.5t-281 -72.5q-195 0 -329 128t-134 337zM297 618h442q2 14 2 25q0 68 -47 121t-143 53 q-98 0 -162.5 -55.5t-91.5 -143.5zM311 1436h303l119 -308h-211z" />
<glyph unicode="&#xe9;" horiz-adv-x="1103" d="M14 434q0 268 163 436t378 168q207 0 324.5 -117.5t117.5 -306.5q1 -90 -28 -182l-701 -2q0 -102 59.5 -167.5t166.5 -65.5q156 0 225 131l209 -105q-55 -109 -170 -181.5t-281 -72.5q-195 0 -329 128t-134 337zM297 618h442q2 14 2 25q0 68 -47 121t-143 53 q-98 0 -162.5 -55.5t-91.5 -143.5zM463 1128l246 308h331l-344 -308h-233z" />
<glyph unicode="&#xea;" horiz-adv-x="1103" d="M14 434q0 268 163 436t378 168q207 0 324.5 -117.5t117.5 -306.5q1 -90 -28 -182l-701 -2q0 -102 59.5 -167.5t166.5 -65.5q156 0 225 131l209 -105q-55 -109 -170 -181.5t-281 -72.5q-195 0 -329 128t-134 337zM240 1130l295 302h270l164 -302h-213l-109 154l-174 -154 h-233zM297 618h442q2 14 2 25q0 68 -47 121t-143 53q-98 0 -162.5 -55.5t-91.5 -143.5z" />
<glyph unicode="&#xeb;" horiz-adv-x="1103" d="M14 434q0 268 163 436t378 168q207 0 324.5 -117.5t117.5 -306.5q1 -90 -28 -182l-701 -2q0 -102 59.5 -167.5t166.5 -65.5q156 0 225 131l209 -105q-55 -109 -170 -181.5t-281 -72.5q-195 0 -329 128t-134 337zM272 1272q0 63 47.5 111.5t112.5 48.5q57 0 94 -39t37 -95 q0 -66 -50 -110.5t-112 -44.5q-55 0 -92 38t-37 91zM297 618h442q2 14 2 25q0 68 -47 121t-143 53q-98 0 -162.5 -55.5t-91.5 -143.5zM702 1272q0 63 47.5 111.5t112.5 48.5q57 0 94 -39t37 -95q0 -66 -50 -110.5t-112 -44.5q-55 0 -92 38t-37 91z" />
<glyph unicode="&#xec;" horiz-adv-x="567" d="M-8 0l215 1008h272l-215 -1008h-272zM49 1436h303l119 -308h-211z" />
<glyph unicode="&#xed;" horiz-adv-x="567" d="M-8 0l215 1008h272l-215 -1008h-272zM246 1128l246 308h331l-344 -308h-233z" />
<glyph unicode="&#xee;" horiz-adv-x="567" d="M-8 0l215 1008h272l-215 -1008h-272zM-8 1130l295 302h270l164 -302h-213l-109 154l-174 -154h-233z" />
<glyph unicode="&#xef;" horiz-adv-x="567" d="M-8 0l215 1008h272l-215 -1008h-272zM86 1272q0 59 45 105t109 46q55 0 90 -35.5t35 -87.5q0 -63 -47.5 -107t-106.5 -44q-57 0 -91 35t-34 88zM430 1272q0 59 45 105t109 46q55 0 90 -35.5t35 -87.5q0 -63 -47.5 -107t-106.5 -44q-57 0 -91 35t-34 88z" />
<glyph unicode="&#xf0;" horiz-adv-x="1140" d="M0 418q0 223 145.5 369.5t362.5 146.5q207 0 291 -123q-18 168 -129 285l-275 -121l-65 158l180 77q-100 49 -223 62l78 217q231 -16 413 -158l234 103l67 -160l-170 -74q150 -193 150 -471q0 -344 -165 -552t-427 -208q-217 0 -342 130t-125 319zM270 422 q0 -90 56.5 -153.5t154.5 -63.5q106 0 185 81t79 214q0 96 -59 153.5t-156 57.5q-109 0 -184.5 -78t-75.5 -211z" />
<glyph unicode="&#xf1;" d="M-2 0l176 836q20 94 21 172h264q0 -61 -6 -103q92 129 282 129q147 0 229.5 -88t82.5 -229q0 -51 -13 -107l-131 -610h-272l125 584q6 31 6 59q0 70 -40 110t-114 40q-84 0 -138 -59.5t-75 -149.5l-127 -584h-270zM295 1139q16 147 91 219t177 72q76 0 148 -48l10 -6 q57 -39 92 -39q68 0 84 90h176q-23 -150 -92.5 -221t-167.5 -71q-76 0 -149 47l-17 10q-59 35 -90 35q-70 0 -86 -88h-176z" />
<glyph unicode="&#xf2;" horiz-adv-x="1144" d="M14 438q0 262 164 431t402 169q209 0 333.5 -133t124.5 -336q0 -248 -159.5 -424t-403.5 -176q-207 0 -334 134.5t-127 334.5zM287 451q0 -106 57 -170t150 -64q106 0 189 91t83 251q0 109 -56.5 170.5t-150.5 61.5q-117 0 -194.5 -97.5t-77.5 -242.5zM315 1436h303 l119 -308h-211z" />
<glyph unicode="&#xf3;" horiz-adv-x="1144" d="M14 438q0 262 164 431t402 169q209 0 333.5 -133t124.5 -336q0 -248 -159.5 -424t-403.5 -176q-207 0 -334 134.5t-127 334.5zM287 451q0 -106 57 -170t150 -64q106 0 189 91t83 251q0 109 -56.5 170.5t-150.5 61.5q-117 0 -194.5 -97.5t-77.5 -242.5zM477 1128l246 308 h332l-344 -308h-234z" />
<glyph unicode="&#xf4;" horiz-adv-x="1144" d="M14 438q0 262 164 431t402 169q209 0 333.5 -133t124.5 -336q0 -248 -159.5 -424t-403.5 -176q-207 0 -334 134.5t-127 334.5zM254 1130l295 302h270l164 -302h-213l-108 154l-175 -154h-233zM287 451q0 -106 57 -170t150 -64q106 0 189 91t83 251q0 109 -56.5 170.5 t-150.5 61.5q-117 0 -194.5 -97.5t-77.5 -242.5z" />
<glyph unicode="&#xf5;" horiz-adv-x="1144" d="M14 438q0 262 164 431t402 169q209 0 333.5 -133t124.5 -336q0 -248 -159.5 -424t-403.5 -176q-207 0 -334 134.5t-127 334.5zM240 1139q16 147 91 219t177 72q78 0 147 -48l11 -6q57 -39 92 -39q68 0 84 90h176q-23 -150 -92.5 -221t-167.5 -71q-76 0 -150 47l-16 10 q-59 35 -90 35q-70 0 -86 -88h-176zM287 451q0 -106 57 -170t150 -64q106 0 189 91t83 251q0 109 -56.5 170.5t-150.5 61.5q-117 0 -194.5 -97.5t-77.5 -242.5z" />
<glyph unicode="&#xf6;" horiz-adv-x="1144" d="M14 438q0 262 164 431t402 169q209 0 333.5 -133t124.5 -336q0 -248 -159.5 -424t-403.5 -176q-207 0 -334 134.5t-127 334.5zM283 1272q0 63 47 111.5t112 48.5q57 0 94 -39t37 -95q0 -66 -50 -110.5t-111 -44.5q-55 0 -92 38t-37 91zM287 451q0 -106 57 -170t150 -64 q106 0 189 91t83 251q0 109 -56.5 170.5t-150.5 61.5q-117 0 -194.5 -97.5t-77.5 -242.5zM713 1272q0 63 47 111.5t112 48.5q57 0 94.5 -39t37.5 -95q0 -66 -50.5 -110.5t-111.5 -44.5q-55 0 -92 38t-37 91z" />
<glyph unicode="&#xf7;" horiz-adv-x="1189" d="M72 492v227h1001v-227h-1001zM408 229.5q0 65.5 47 112.5t112.5 47t112.5 -47t47 -112.5t-47 -112.5t-112.5 -47t-112.5 47t-47 112.5zM408 981q0 66 47 112t112.5 46t112.5 -46t47 -112t-47 -113t-112.5 -47t-112.5 47t-47 113z" />
<glyph unicode="&#xf8;" horiz-adv-x="1144" d="M-70 45l148 141q-63 115 -64 252q0 262 164 431t402 169q170 0 290 -94l142 137l112 -116l-149 -144q63 -111 63 -252q0 -248 -159.5 -424t-403.5 -176q-172 0 -291 97l-141 -136zM287 451q0 -35 6 -60l383 367q-47 33 -117 33q-117 0 -194.5 -97.5t-77.5 -242.5z M377 250q47 -33 117 -33q106 0 189 91t83 251q0 20 -4 57z" />
<glyph unicode="&#xf9;" horiz-adv-x="1161" d="M45 305q0 57 21 150l118 553h271l-117 -545q-14 -63 -14 -96q0 -70 37.5 -111t113.5 -41q80 0 132 57.5t73 149.5l127 586h270l-168 -803q-23 -100 -22 -182v-23h-260q-2 12 -2 43t2 61q-39 -61 -110 -95t-142 -34q-156 0 -243 92.5t-87 237.5zM344 1436h303l119 -308 h-211z" />
<glyph unicode="&#xfa;" horiz-adv-x="1161" d="M45 305q0 57 21 150l118 553h271l-117 -545q-14 -63 -14 -96q0 -70 37.5 -111t113.5 -41q80 0 132 57.5t73 149.5l127 586h270l-168 -803q-23 -100 -22 -182v-23h-260q-2 12 -2 43t2 61q-39 -61 -110 -95t-142 -34q-156 0 -243 92.5t-87 237.5zM479 1128l246 308h332 l-344 -308h-234z" />
<glyph unicode="&#xfb;" horiz-adv-x="1161" d="M45 305q0 57 21 150l118 553h271l-117 -545q-14 -63 -14 -96q0 -70 37.5 -111t113.5 -41q80 0 132 57.5t73 149.5l127 586h270l-168 -803q-23 -100 -22 -182v-23h-260q-2 12 -2 43t2 61q-39 -61 -110 -95t-142 -34q-156 0 -243 92.5t-87 237.5zM283 1130l295 302h270 l164 -302h-213l-109 154l-174 -154h-233z" />
<glyph unicode="&#xfc;" horiz-adv-x="1161" d="M45 305q0 57 21 150l118 553h271l-117 -545q-14 -63 -14 -96q0 -70 37.5 -111t113.5 -41q80 0 132 57.5t73 149.5l127 586h270l-168 -803q-23 -100 -22 -182v-23h-260q-2 12 -2 43t2 61q-39 -61 -110 -95t-142 -34q-156 0 -243 92.5t-87 237.5zM317 1272q0 63 47.5 111.5 t112.5 48.5q57 0 94 -39t37 -95q0 -66 -50 -110.5t-112 -44.5q-55 0 -92 38t-37 91zM748 1272q0 63 47 111.5t112 48.5q57 0 94 -39t37 -95q0 -66 -50 -110.5t-111 -44.5q-55 0 -92 38t-37 91z" />
<glyph unicode="&#xfd;" horiz-adv-x="1073" d="M-78 -389l348 549l-221 848h287l135 -566l340 566h305l-893 -1397h-301zM420 1128l246 308h331l-344 -308h-233z" />
<glyph unicode="&#xfe;" horiz-adv-x="1234" d="M-84 -389l397 1872h273l-119 -565q100 111 270 110q186 0 287.5 -116.5t101.5 -303.5q0 -276 -148.5 -454.5t-375.5 -178.5q-109 0 -190.5 41t-118.5 105l-107 -510h-270zM369 449q0 -111 57 -171.5t149 -60.5q106 0 191.5 93t85.5 255q0 109 -57.5 167.5t-151.5 58.5 q-117 0 -195.5 -98.5t-78.5 -243.5z" />
<glyph unicode="&#xff;" horiz-adv-x="1073" d="M-78 -389l348 549l-221 848h287l135 -566l340 566h305l-893 -1397h-301zM248 1272q0 63 47 111.5t113 48.5q57 0 94 -39t37 -95q0 -66 -50.5 -110.5t-111.5 -44.5q-55 0 -92 38t-37 91zM678 1272q0 63 47 111.5t113 48.5q57 0 94 -39t37 -95q0 -66 -50.5 -110.5 t-111.5 -44.5q-55 0 -92 38t-37 91z" />
<glyph unicode="&#x152;" horiz-adv-x="2213" d="M66 618q0 201 66.5 367t176 273.5t248.5 166t289 58.5q344 0 457 -228l43 197h905l-58 -266h-620l-72 -332h563l-53 -252h-563l-72 -336h623l-55 -266h-906l23 111q-160 -141 -375 -142q-276 0 -448 181.5t-172 467.5zM354 639q0 -182 100.5 -289.5t266.5 -107.5 q199 0 336 161.5t139 413.5q0 182 -98.5 289.5t-268.5 107.5q-207 0 -341 -170t-134 -405z" />
<glyph unicode="&#x153;" horiz-adv-x="1849" d="M14 438q0 262 164 431t402 169q233 0 350 -164q158 164 370 164q207 0 325 -117.5t118 -306.5q0 -100 -29 -182h-698q-2 -6 -2 -14q2 -96 63.5 -158.5t161.5 -62.5q156 0 225 131l209 -105q-55 -109 -169.5 -181.5t-278.5 -72.5q-229 0 -363 168q-158 -168 -387 -168 q-207 0 -334 134.5t-127 334.5zM287 451q0 -106 57 -170t150 -64q106 0 189 91t83 251q0 109 -56.5 170.5t-150.5 61.5q-117 0 -194.5 -97.5t-77.5 -242.5zM1042 618h443q2 4 2 25q0 68 -47 121t-143.5 53t-161 -55.5t-93.5 -143.5z" />
<glyph unicode="&#x178;" horiz-adv-x="1282" d="M164 1452h299l207 -569l403 569h340l-645 -844l-129 -608h-283l129 612zM406 1669q0 63 48 113.5t115 50.5q59 0 96 -38t37 -93q0 -70 -48 -117t-113 -47q-59 0 -97 37t-38 94zM874 1669q0 63 48.5 113.5t115.5 50.5q59 0 96 -38t37 -93q0 -70 -48 -117t-113 -47 q-59 0 -97.5 37t-38.5 94z" />
<glyph unicode="&#x2c6;" horiz-adv-x="790" d="M-66 1130l295 302h271l164 -302h-213l-109 154l-174 -154h-234z" />
<glyph unicode="&#x2dc;" horiz-adv-x="763" d="M96 1139q16 147 91 219t178 72q78 0 147 -48l10 -6q59 -39 92 -39q68 0 84 90h176q-23 -150 -92 -221t-168 -71q-76 0 -149 47l-16 10q-59 35 -91 35q-70 0 -86 -88h-176z" />
<glyph unicode="&#x2000;" horiz-adv-x="916" />
<glyph unicode="&#x2001;" horiz-adv-x="1833" />
<glyph unicode="&#x2002;" horiz-adv-x="916" />
<glyph unicode="&#x2003;" horiz-adv-x="1833" />
<glyph unicode="&#x2004;" horiz-adv-x="611" />
<glyph unicode="&#x2005;" horiz-adv-x="458" />
<glyph unicode="&#x2006;" horiz-adv-x="305" />
<glyph unicode="&#x2007;" horiz-adv-x="305" />
<glyph unicode="&#x2008;" horiz-adv-x="229" />
<glyph unicode="&#x2009;" horiz-adv-x="366" />
<glyph unicode="&#x200a;" horiz-adv-x="101" />
<glyph unicode="&#x2010;" horiz-adv-x="747" d="M23 487l51 242h596l-54 -242h-593z" />
<glyph unicode="&#x2011;" horiz-adv-x="747" d="M23 487l51 242h596l-54 -242h-593z" />
<glyph unicode="&#x2012;" horiz-adv-x="747" d="M23 487l51 242h596l-54 -242h-593z" />
<glyph unicode="&#x2013;" horiz-adv-x="1288" d="M63 489l50 236h1056l-49 -236h-1057z" />
<glyph unicode="&#x2014;" horiz-adv-x="2197" d="M84 489l49 236h1925l-49 -236h-1925z" />
<glyph unicode="&#x2018;" horiz-adv-x="444" d="M115 1055q0 160 121.5 281.5t287.5 129.5l-26 -127q-74 -8 -136.5 -56t-80.5 -116q8 8 43 9q59 0 95 -37t36 -88q0 -72 -50.5 -121t-126 -49t-119.5 49t-44 125z" />
<glyph unicode="&#x2019;" horiz-adv-x="432" d="M102 881l27 125q70 6 135.5 55t81.5 117q-8 -8 -43 -9q-61 0 -96 37t-35 90q0 72 50 121t126 49t120 -50t44 -124q0 -162 -122 -283.5t-288 -127.5z" />
<glyph unicode="&#x201a;" horiz-adv-x="454" d="M-131 -297l27 125q70 8 135 57t82 115q-8 -8 -43 -8q-61 0 -96 37t-35 90q0 72 50 121t125.5 49t120 -49.5t44.5 -124.5q0 -162 -122 -284t-288 -128z" />
<glyph unicode="&#x201c;" horiz-adv-x="845" d="M115 1061q0 158 119.5 276.5t283.5 128.5l-26 -125q-70 -8 -132.5 -56t-80.5 -111q6 6 40 6q61 0 96.5 -36t35.5 -87q0 -72 -49.5 -120t-125.5 -48q-74 0 -117.5 49t-43.5 123zM520 1061q0 158 120 276.5t286 128.5l-27 -125q-72 -8 -134.5 -56t-80.5 -111q6 6 43 6 q59 0 94 -36t35 -87q0 -72 -49 -120t-125 -48q-74 0 -118 49t-44 123z" />
<glyph unicode="&#x201d;" horiz-adv-x="837" d="M102 887l27 123q68 8 132.5 56t82.5 114q-8 -8 -43 -9q-59 0 -95 36t-36 89q0 70 50 118t126 48q74 0 117 -49t43 -121q0 -160 -120 -279.5t-284 -125.5zM512 887l27 123q68 8 132 56t83 114q-8 -8 -43 -9q-59 0 -94 36t-35 89q0 70 50 118t123.5 48t118 -49t44.5 -121 q0 -160 -121 -279.5t-285 -125.5z" />
<glyph unicode="&#x201e;" horiz-adv-x="849" d="M-131 -293l27 125q66 6 131 54t84 114q-6 -6 -43 -6q-59 0 -95 36t-36 87q0 72 50 120t126 48q74 0 116.5 -49.5t42.5 -122.5q0 -158 -119.5 -278t-283.5 -128zM270 -293l27 125q68 6 132.5 54t80.5 114q-6 -6 -41 -6q-61 0 -96 36t-35 87q0 72 49 120t125 48 q74 0 118 -49.5t44 -122.5q0 -158 -120 -278t-284 -128z" />
<glyph unicode="&#x2022;" horiz-adv-x="1112" d="M104 612q0 176 125 302t301.5 126t301 -126t124.5 -302t-124.5 -302t-301.5 -126q-174 0 -300 126t-126 302z" />
<glyph unicode="&#x2026;" horiz-adv-x="1779" d="M0 127q0 74 55.5 128t130.5 54q68 0 110 -43t42 -106q0 -74 -55 -128.5t-131 -54.5q-68 0 -110 43t-42 107zM606 127q0 74 55.5 128t131.5 54q70 0 111.5 -43t41.5 -106q0 -74 -55 -128.5t-131 -54.5q-68 0 -111 43t-43 107zM1217 127q0 74 55 128t131 54q68 0 109.5 -43 t41.5 -106q0 -74 -55 -128.5t-131 -54.5q-68 0 -109.5 43t-41.5 107z" />
<glyph unicode="&#x202f;" horiz-adv-x="366" />
<glyph unicode="&#x2039;" horiz-adv-x="616" d="M12 610l361 398h272l-379 -414l197 -387h-246z" />
<glyph unicode="&#x203a;" horiz-adv-x="604" d="M-90 207l377 414l-197 387h246l207 -406l-363 -395h-270z" />
<glyph unicode="&#x205f;" horiz-adv-x="458" />
<glyph unicode="&#x20ac;" horiz-adv-x="1378" d="M31 403l41 189h168q0 72 12 135h-152l41 188h166q94 209 285.5 327t408.5 118q252 0 406 -135l-147 -201q-100 94 -281 94q-106 0 -207.5 -51t-169.5 -152h582l-123 -188h-535q-12 -61 -12 -135h469l-121 -189h-311q88 -190 344 -190q133 0 229 61l82 -211 q-152 -94 -348 -94q-221 0 -384 118t-214 316h-229z" />
<glyph unicode="&#x2122;" horiz-adv-x="1794" d="M121 1280l35 172h614l-37 -172h-209l-121 -575h-192l123 575h-213zM719 705l158 747h249l93 -438l262 438h274l-158 -747h-184l94 460l-272 -460h-137l-94 460l-99 -460h-186z" />
<glyph unicode="&#x25fc;" horiz-adv-x="1003" d="M0 0v1004h1004v-1004h-1004z" />
<glyph unicode="&#xfb01;" horiz-adv-x="1284" d="M45 776l49 232h172l35 163q70 326 393 326q109 0 166 -35l-47 -223l-10 4q-10 4 -32.5 9t-49.5 5q-129 0 -160 -139l-22 -110h657l-215 -1008h-270l166 776h-388l-163 -776h-275l164 776h-170zM961 1327q0 76 54 129t130 53q68 0 109.5 -42t41.5 -105q0 -78 -56 -130 t-130 -52q-63 0 -106 42t-43 105z" />
<glyph unicode="&#xfb02;" horiz-adv-x="1282" d="M45 776l49 232h172l35 163q70 326 393 326q109 0 166 -35l-47 -223l-10 4q-10 4 -32.5 9t-49.5 5q-129 0 -160 -139l-22 -110h385l100 475h272l-315 -1483h-270l163 776h-385l-163 -776h-275l164 776h-170z" />
<glyph unicode="&#xfb03;" horiz-adv-x="1925" d="M45 776l49 232h172l31 151q72 338 397 338q109 0 166 -35l-47 -223l-10 4q-8 4 -29.5 9t-48.5 5q-133 0 -162 -127l-24 -122h376l31 151q72 338 400 338q106 0 163 -35l-47 -223l-8 4q-10 4 -31.5 9t-48.5 5q-133 0 -162 -127l-24 -122h649l-215 -1008h-270l166 776h-379 l-164 -776h-275l164 776h-375l-163 -776h-275l164 776h-170zM1602 1327q0 76 54 129t130 53q66 0 108.5 -42t42.5 -105q0 -78 -56 -130t-130 -52q-63 0 -106 42t-43 105z" />
<glyph unicode="&#xfb04;" horiz-adv-x="1937" d="M45 776l49 232h172l31 151q72 338 397 338q109 0 166 -35l-47 -223l-10 4q-8 4 -29.5 9t-48.5 5q-133 0 -162 -127l-24 -122h376l31 151q72 338 400 338q106 0 163 -35l-47 -223l-8 4q-10 4 -31.5 9t-48.5 5q-133 0 -162 -127l-24 -122h391l100 475h273l-316 -1483h-270 l164 776h-391l-164 -776h-275l164 776h-375l-163 -776h-275l164 776h-170z" />
</font>
</defs>
</svg>
