<?xml version="1.0" standalone="no"?>
<!DOCTYPE svg PUBLIC "-//W3C//DTD SVG 1.1//EN" "http://www.w3.org/Graphics/SVG/1.1/DTD/svg11.dtd" >
<svg xmlns="http://www.w3.org/2000/svg" xmlns:xlink="http://www.w3.org/1999/xlink" version="1.1">
<metadata></metadata>
<defs>
<font id="circular_stdmedium_italic" horiz-adv-x="1175" >
<font-face units-per-em="2048" ascent="1657" descent="-391" />
<missing-glyph horiz-adv-x="534" />
<glyph horiz-adv-x="0" />
<glyph horiz-adv-x="0" />
<glyph unicode="&#xd;" horiz-adv-x="534" />
<glyph unicode=" "  horiz-adv-x="534" />
<glyph unicode="&#x09;" horiz-adv-x="534" />
<glyph unicode="&#xa0;" horiz-adv-x="534" />
<glyph unicode="!" horiz-adv-x="636" d="M45 119q0 68 48 118t116 50q61 0 99 -38t38 -95q0 -70 -50 -119t-114 -49q-59 0 -98 38t-39 95zM164 430l153 1022h293l-274 -1022h-172z" />
<glyph unicode="&#x22;" horiz-adv-x="845" d="M168 1194q0 68 42 112t109 44q57 0 94.5 -35t37.5 -88q0 -35 -21 -80l-168 -363h-86zM539 1194q0 68 42 112t109 44q57 0 94 -35t37 -88q0 -35 -20 -80l-168 -363h-86z" />
<glyph unicode="#" horiz-adv-x="1482" d="M68 336v178h292l66 305h-256v178h293l72 330h196l-72 -330h279l72 330h194l-71 -330h268v-178h-305l-66 -305h268v-178h-307l-71 -336h-195l72 336h-279l-72 -336h-196l72 336h-254zM557 514h277l67 305h-278z" />
<glyph unicode="$" horiz-adv-x="1167" d="M29 408q0 39 2 38l221 37q-2 -12 -2 -37q0 -80 37 -147.5t110 -99.5l82 389l-24 12q-250 121 -250 350q0 170 126 285t312 123l45 211h193l-50 -234q145 -41 215 -147.5t70 -212.5l-219 -41q0 135 -111 192l-81 -393l14 -6q270 -133 270 -356q0 -162 -124 -279t-322 -123 l-43 -209h-195l49 232q-162 45 -243.5 163.5t-81.5 252.5zM436 973q0 -98 92 -154l70 330q-74 -14 -118 -63.5t-44 -112.5zM588 180q76 14 119 59t45 113q0 88 -97 148z" />
<glyph unicode="%" horiz-adv-x="1599" d="M72 0l1226 1327h224l-1225 -1327h-225zM98 987q0 152 108.5 257.5t256.5 105.5q129 0 214 -86t85 -211q0 -152 -112 -256.5t-253 -104.5q-129 0 -214 85t-85 210zM287 999q0 -57 34 -93t93 -36q63 0 111 48.5t48 125.5q0 57 -34.5 92t-94.5 35q-61 0 -109 -49t-48 -123z M844 281q0 152 108.5 257t255.5 105q129 0 214 -86t85 -211q0 -152 -111.5 -256t-252.5 -104q-129 0 -214 85t-85 210zM1032 293q0 -57 34 -93t93 -36q63 0 111.5 48t48.5 126q0 57 -35 92t-94 35q-61 0 -109.5 -49t-48.5 -123z" />
<glyph unicode="&#x26;" horiz-adv-x="1392" d="M20 350.5q0 151.5 88.5 253t247.5 187.5l31 16l-22 31q-102 143 -103 266q0 178 124 278.5t290 100.5t265 -94.5t99 -231.5q0 -129 -77.5 -214t-206.5 -157l-58 -32l193 -277l432 369l-68 -322l-249 -213l219 -311h-277l-114 164l-23 -19q-190 -162 -389 -161 q-180 0 -291 107.5t-111 259zM262 365q0 -70 52.5 -119t134.5 -49q111 0 253 120l17 13l-219 313l-72 -39q-88 -49 -127 -103t-39 -136zM494 1112q0 -68 51 -139l41 -60l69 37q154 80 154 199q0 59 -41 96t-109 37q-63 0 -114 -43t-51 -127z" />
<glyph unicode="'" horiz-adv-x="460" d="M168 1194q0 68 42 112t109 44q57 0 94.5 -35t37.5 -88q0 -35 -21 -80l-168 -363h-86z" />
<glyph unicode="(" horiz-adv-x="624" d="M66 418q0 383 164.5 698.5t482.5 530.5l108 -148q-553 -403 -553 -1069q0 -342 193 -651l-162 -101q-233 347 -233 740z" />
<glyph unicode=")" horiz-adv-x="626" d="M-201 -184q555 420 555 1075q0 342 -190 645l162 100q231 -346 231 -743q0 -375 -167 -686t-482 -537z" />
<glyph unicode="*" horiz-adv-x="909" d="M129 1098l84 170l229 -82l43 266h203l-51 -266l258 82l25 -181l-263 -81l123 -205l-162 -109l-124 217l-203 -217l-135 111l204 215z" />
<glyph unicode="+" horiz-adv-x="1179" d="M88 500v194h385v400h203v-400h387v-194h-387v-404h-203v404h-385z" />
<glyph unicode="," horiz-adv-x="585" d="M-72 -338l27 125q82 12 153.5 72.5t88.5 138.5q-16 -8 -47 -8q-61 0 -101.5 39t-40.5 100q0 76 53.5 126t131 50t126 -51t48.5 -135q0 -180 -127 -313.5t-312 -143.5z" />
<glyph unicode="-" horiz-adv-x="741" d="M31 494l45 211h575l-43 -211h-577z" />
<glyph unicode="." horiz-adv-x="557" d="M0 137q0 74 55.5 128t130.5 54q68 0 110 -43t42 -104q0 -76 -54 -130t-130 -54q-68 0 -111 44t-43 105z" />
<glyph unicode="/" horiz-adv-x="952" d="M-164 -31l1057 1514h233l-1058 -1514h-232z" />
<glyph unicode="0" horiz-adv-x="1243" d="M57 487q0 113 21.5 228.5t71 232.5t121 207t181 146.5t240.5 56.5q242 0 357.5 -147.5t115.5 -364.5q0 -147 -37.5 -296t-111.5 -282t-201 -216t-285 -83q-123 0 -216 43t-147 118t-82 165t-28 192zM301 489q0 -139 60.5 -220t183.5 -81q98 0 175 68t119 173.5t62.5 213 t20.5 203.5q0 293 -244 293q-98 0 -175 -66.5t-119 -170t-62.5 -209.5t-20.5 -204z" />
<glyph unicode="1" horiz-adv-x="729" d="M61 928l35 159q125 8 223.5 73t141.5 167h213l-281 -1327h-243l198 928h-287z" />
<glyph unicode="2" horiz-adv-x="1114" d="M-66 0q8 49 9 55q72 373 424 535l245 112q223 102 224 259q0 78 -52.5 131t-152.5 53q-119 0 -187.5 -80t-68.5 -217v-17l-234 23v12q0 211 137.5 351.5t364.5 140.5q215 0 326.5 -107.5t111.5 -273.5q0 -293 -348 -455l-287 -131q-131 -61 -182 -174h684l-47 -217h-967z " />
<glyph unicode="3" horiz-adv-x="1110" d="M-16 393q0 29 4 47l239 27q-4 -33 -4 -45q0 -100 63.5 -170t172.5 -70q115 0 189.5 71t74.5 181q0 100 -64.5 151.5t-152.5 51.5q-33 0 -78 -12l-86 200l442 287h-614l43 215h922l-54 -256l-417 -272q131 -14 220 -109.5t89 -243.5q0 -193 -144.5 -335t-371.5 -142 q-219 0 -346 126t-127 298z" />
<glyph unicode="4" horiz-adv-x="1212" d="M-20 291l55 270l741 766h305l-176 -819h236l-45 -217h-238l-57 -291h-242l57 291h-636zM250 508h414l120 555z" />
<glyph unicode="5" horiz-adv-x="1101" d="M-10 395v13l233 45q-2 -12 -2 -29q0 -100 61.5 -172t176.5 -72q111 0 188.5 73t77.5 200q0 100 -61.5 157.5t-163.5 57.5q-115 0 -199 -70l-211 115l281 614h731l-45 -215h-555l-140 -297q84 51 203 51q186 0 298 -103.5t112 -283.5q0 -213 -145.5 -361.5t-374.5 -148.5 q-205 0 -335 123t-130 303z" />
<glyph unicode="6" horiz-adv-x="1159" d="M45 473q0 236 96.5 434.5t281.5 321.5t423 123q223 0 332 -72l-97 -190q-106 53 -243 53q-180 0 -315.5 -101.5t-186.5 -277.5q113 117 297 117q190 0 302 -106.5t112 -280.5q0 -231 -156 -378t-377 -147q-201 0 -335 136.5t-134 367.5zM293 410q0 -100 65.5 -165 t165.5 -65q111 0 191 76t80 203q0 100 -62 159.5t-168 59.5q-117 0 -194.5 -76t-77.5 -192z" />
<glyph unicode="7" horiz-adv-x="1036" d="M41 0q53 203 148.5 390.5t180.5 302t193.5 222t147.5 137t82 60.5h-703l45 215h989l-45 -215q-55 -37 -113.5 -84t-157.5 -148.5t-185 -217t-176.5 -291.5t-147.5 -371h-258z" />
<glyph unicode="8" horiz-adv-x="1140" d="M4 334q0 129 88 225t240 129q-70 31 -120 105.5t-50 160.5q0 180 140 292t347 112q203 0 318.5 -97.5t115.5 -244.5q0 -123 -77.5 -217t-212.5 -131q86 -31 137 -112t51 -175q0 -186 -150.5 -299t-367.5 -113q-209 0 -334 100.5t-125 264.5zM248 358q0 -86 63.5 -137 t167.5 -51q113 0 186.5 64.5t73.5 160.5q0 82 -58 136.5t-169 54.5q-117 0 -190.5 -65t-73.5 -163zM399 942q0 -72 52.5 -122t146.5 -50q104 0 172 60.5t68 154.5q0 70 -52.5 121t-142.5 51q-115 0 -179.5 -61.5t-64.5 -153.5z" />
<glyph unicode="9" horiz-adv-x="1150" d="M-45 78l98 188q117 -78 277 -78q184 0 313 110t160 292q-98 -133 -297 -133q-180 0 -298 111.5t-118 289.5q0 225 154.5 362.5t371.5 137.5q209 0 340 -131t131 -371q0 -395 -206.5 -641t-552.5 -246q-236 0 -373 109zM338 877q0 -98 62.5 -159t164.5 -61q115 0 189.5 75 t74.5 192q0 100 -63.5 161.5t-161.5 61.5q-109 0 -187.5 -72.5t-78.5 -197.5z" />
<glyph unicode=":" horiz-adv-x="602" d="M10 135q0 74 54.5 127t130.5 53q68 0 108.5 -42t40.5 -103q0 -76 -53 -129t-129 -53q-66 0 -109 44t-43 103zM162 827q0 74 54 127.5t130 53.5q68 0 109 -42t41 -104q0 -76 -53.5 -129t-129.5 -53q-66 0 -108.5 44t-42.5 103z" />
<glyph unicode=";" horiz-adv-x="602" d="M-78 -322l25 121q78 10 146.5 67.5t84.5 133.5q-16 -8 -45 -8q-59 0 -97 38t-38 95q0 74 51 122t125 48t120 -49t46 -131q0 -172 -121 -299t-297 -138zM162 831q0 74 54 127.5t130 53.5q68 0 109 -42t41 -104q0 -76 -53.5 -129t-129.5 -53q-66 0 -108.5 44t-42.5 103z " />
<glyph unicode="&#x3c;" horiz-adv-x="1013" d="M47 500v192l864 434v-227l-618 -301l618 -303v-227z" />
<glyph unicode="=" horiz-adv-x="1265" d="M127 299v195h973v-195h-973zM127 702v193h973v-193h-973z" />
<glyph unicode="&#x3e;" horiz-adv-x="1013" d="M61 68v225l621 303l-621 301v229l865 -434v-192z" />
<glyph unicode="?" horiz-adv-x="1034" d="M113 1006q4 209 144 343t364 134q201 0 313.5 -103.5t112.5 -251.5q0 -264 -285 -426l-103 -57q-131 -78 -143 -217h-199q10 262 232 389l110 64q139 80 140 213q0 72 -50.5 123t-146.5 51q-127 0 -194.5 -84t-67.5 -207zM236 119q0 68 48 118t115 50q61 0 99.5 -38 t38.5 -95q0 -70 -50.5 -119t-113.5 -49q-61 0 -99 38t-38 95z" />
<glyph unicode="@" horiz-adv-x="1658" d="M61 680q0 350 233.5 576.5t567.5 226.5q315 0 525 -191.5t210 -478.5q0 -227 -120.5 -377.5t-286.5 -152.5q-74 0 -126 33.5t-69 89.5q-41 -59 -107.5 -93t-135.5 -34q-135 0 -223.5 98t-88.5 254q0 199 120 334t286 135q66 0 126 -31t83 -88l16 92h180l-108 -508 q-4 -37 -4 -49q0 -72 69 -72q82 0 146.5 109t64.5 258q0 221 -154.5 362.5t-400.5 141.5q-266 0 -439 -176t-173 -459q0 -268 170 -439t461 -171q225 0 397 131l90 -125q-82 -78 -220 -125t-267 -47q-362 0 -592 215t-230 561zM633 651q0 -203 158 -202q92 0 153.5 85 t65.5 220q0 82 -40 128t-114 46q-98 0 -160.5 -82t-62.5 -195z" />
<glyph unicode="A" horiz-adv-x="1368" d="M-147 0l858 1452h276l242 -1452h-252l-55 365h-584l-209 -365h-276zM467 592h420l-88 584z" />
<glyph unicode="B" horiz-adv-x="1243" d="M20 0l308 1452h463q184 0 282 -93t98 -245q0 -129 -79.5 -236.5t-204.5 -142.5q86 -27 144.5 -105.5t58.5 -185.5q0 -193 -140.5 -318.5t-359.5 -125.5h-570zM307 209h248q125 0 206 68.5t81 177.5q0 80 -52.5 128t-158.5 48h-234zM440 838h209q123 0 199 66.5t76 170.5 q0 78 -52.5 123t-150.5 45h-195z" />
<glyph unicode="C" horiz-adv-x="1472" d="M68 623q0 201 67.5 367.5t179 272t251 163t286.5 57.5q262 0 413.5 -134.5t188.5 -330.5l-235 -72q-27 131 -124.5 218t-260.5 87q-225 0 -370 -176t-145 -438q0 -199 108 -317.5t292 -118.5q289 0 422 297l217 -88q-82 -195 -250 -318t-412 -123q-276 0 -452 183.5 t-176 470.5z" />
<glyph unicode="D" horiz-adv-x="1431" d="M20 0l306 1452h415q285 0 453 -163t168 -431q0 -203 -65.5 -369.5t-176 -271t-247.5 -161t-287 -56.5h-566zM311 227h279q203 0 362.5 165t159.5 456q0 178 -107.5 279.5t-293.5 101.5h-187z" />
<glyph unicode="E" horiz-adv-x="1183" d="M20 0l308 1452h891l-50 -229h-643l-82 -385h584l-49 -224h-582l-84 -385h645l-47 -229h-891z" />
<glyph unicode="F" horiz-adv-x="1150" d="M20 0l308 1452h895l-49 -231h-650l-86 -408h582l-47 -227h-582l-125 -586h-246z" />
<glyph unicode="G" horiz-adv-x="1533" d="M68 623q0 201 67.5 367.5t179 272t252 163t289.5 57.5q260 0 412.5 -132t189.5 -327l-237 -70q-27 129 -124 214t-261 85q-223 0 -371 -176t-148 -440q0 -201 107.5 -321.5t294.5 -120.5q156 0 276.5 89t159.5 236h-473l45 215h705l-156 -735h-189l11 156 q-152 -184 -412 -185q-268 0 -443 179.5t-175 472.5z" />
<glyph unicode="H" horiz-adv-x="1468" d="M20 0l308 1452h245l-127 -600h627l127 600h248l-307 -1452h-248l131 621h-627l-131 -621h-246z" />
<glyph unicode="I" horiz-adv-x="598" d="M20 0l308 1452h250l-308 -1452h-250z" />
<glyph unicode="J" horiz-adv-x="1124" d="M10 365q0 66 15 137l10 49l244 37l-23 -111q-10 -61 -10 -80q0 -90 48 -145t140 -55q176 0 223 225l220 1030h247l-223 -1049q-43 -199 -167 -315.5t-310 -116.5q-195 0 -304.5 109.5t-109.5 284.5z" />
<glyph unicode="K" horiz-adv-x="1386" d="M20 0l308 1452h245l-139 -653l735 653h340l-729 -645l430 -807h-284l-336 637l-234 -207l-90 -430h-246z" />
<glyph unicode="L" horiz-adv-x="1118" d="M20 0l308 1452h245l-258 -1219h648l-50 -233h-893z" />
<glyph unicode="M" horiz-adv-x="1918" d="M20 0l308 1452h297l254 -1098l677 1098h342l-309 -1452h-241l223 1057l-658 -1057h-190l-242 1049l-223 -1049h-238z" />
<glyph unicode="N" horiz-adv-x="1523" d="M20 0l308 1452h286l420 -1042l221 1042h248l-309 -1452h-250l-446 1094l-232 -1094h-246z" />
<glyph unicode="O" horiz-adv-x="1548" d="M68 612q0 203 66.5 372t177 275.5t247.5 165t285 58.5q289 0 462 -177.5t173 -465.5q0 -205 -66.5 -373t-176.5 -274.5t-247 -165t-284 -58.5q-287 0 -462 177t-175 466zM319 631q0 -201 109 -315.5t289 -114.5q223 0 365.5 179t146.5 441q0 201 -108.5 315.5 t-289.5 114.5q-223 0 -366 -179t-146 -441z" />
<glyph unicode="P" horiz-adv-x="1208" d="M20 0l308 1452h467q193 0 308.5 -108.5t115.5 -278.5q0 -223 -155 -357.5t-394 -134.5h-283l-121 -573h-246zM432 788h236q133 0 215 68t84 193q0 86 -56.5 137t-165.5 51h-215z" />
<glyph unicode="Q" horiz-adv-x="1552" d="M68 612q0 203 66.5 372t177 275.5t247.5 165t285 58.5q289 0 462 -177.5t173 -465.5q0 -422 -269 -670l154 -211l-184 -121l-150 207q-158 -76 -325 -76q-287 0 -462 177t-175 466zM319 631q0 -201 109 -315.5t289 -114.5q90 0 176 35l-217 301l184 120l209 -292 q156 182 160 456q0 201 -108.5 315.5t-289.5 114.5q-223 0 -366 -179t-146 -441z" />
<glyph unicode="R" horiz-adv-x="1273" d="M20 0l308 1452h489q193 0 301.5 -103.5t108.5 -267.5q0 -180 -103.5 -305t-273.5 -170l231 -606h-262l-209 580h-221l-123 -580h-246zM434 795h248q131 0 212 70.5t81 189.5q0 84 -52.5 133t-154.5 49h-240z" />
<glyph unicode="S" horiz-adv-x="1193" d="M4 449q0 6 1 18t1 18l238 41q-2 -14 -2 -43q0 -123 74.5 -210t224.5 -87q113 0 180 55.5t67 143.5q0 123 -137 184l-182 82q-274 123 -274 383q0 193 145 321t358 128q131 0 230.5 -42t153 -108.5t78 -134.5t24.5 -133l-232 -41q0 33 -9 66.5t-34.5 76.5t-83 71 t-139.5 28q-111 0 -176.5 -58.5t-65.5 -146.5q0 -121 123 -176l183 -82q294 -131 294 -391q0 -180 -139 -311.5t-362 -131.5q-139 0 -248 44t-169 117t-91 154t-31 165z" />
<glyph unicode="T" horiz-adv-x="1189" d="M133 1223l49 229h1135l-49 -229h-434l-261 -1223h-245l258 1223h-453z" />
<glyph unicode="U" horiz-adv-x="1374" d="M104 418q0 66 17 147l186 887h242l-187 -905q-12 -55 -12 -103q0 -113 65.5 -176t198.5 -63q121 0 201 71.5t109 208.5l202 967h248l-211 -1001q-49 -229 -199.5 -355.5t-365.5 -126.5q-225 0 -359.5 121t-134.5 328z" />
<glyph unicode="V" horiz-adv-x="1304" d="M154 1452h249l152 -1130l629 1130h268l-834 -1452h-247z" />
<glyph unicode="W" horiz-adv-x="1998" d="M178 1452h242l67 -1061l529 1061h254l121 -1069l483 1069h256l-682 -1452h-244l-121 1098l-546 -1098h-256z" />
<glyph unicode="X" horiz-adv-x="1320" d="M-123 0l637 731l-332 721h277l231 -518l438 518h308l-641 -737l329 -715h-278l-228 512l-434 -512h-307z" />
<glyph unicode="Y" horiz-adv-x="1267" d="M178 1452h260l226 -598l432 598h295l-643 -842l-127 -610h-248l131 618z" />
<glyph unicode="Z" horiz-adv-x="1280" d="M-61 0l51 238l973 985h-746l49 229h1071l-49 -229l-985 -992h784l-49 -231h-1099z" />
<glyph unicode="[" horiz-adv-x="624" d="M-45 -322l416 1958h436l-39 -182h-242l-338 -1591h244l-39 -185h-438z" />
<glyph unicode="\" horiz-adv-x="897" d="M123 1483h209l436 -1514h-207z" />
<glyph unicode="]" horiz-adv-x="630" d="M-211 -322l39 185h242l338 1591h-244l39 182h438l-416 -1958h-436z" />
<glyph unicode="^" horiz-adv-x="1148" d="M102 721l402 733h192l402 -733h-232l-264 500l-266 -500h-234z" />
<glyph unicode="_" horiz-adv-x="1067" d="M-133 0h1046v-197h-1046v197z" />
<glyph unicode="`" horiz-adv-x="563" d="M-18 1425h270l117 -303h-185z" />
<glyph unicode="a" d="M16 422q0 252 146.5 427t367.5 175q121 0 195 -43t104 -102l27 118h231l-161 -759q-20 -102 -21 -189q0 -27 2 -49h-221q-2 18 -2 41q0 37 4 82q-111 -141 -274 -141q-186 0 -292 123.5t-106 316.5zM254 428q0 -111 56.5 -177.5t156.5 -66.5q123 0 207 113t84 287 q0 104 -54.5 167.5t-154.5 63.5q-135 0 -215 -118.5t-80 -268.5z" />
<glyph unicode="b" horiz-adv-x="1189" d="M-16 0l311 1483h233l-118 -568q96 107 282 107h2q185 0 285 -120t100 -306q0 -268 -148.5 -445.5t-377.5 -177.5q-109 0 -191.5 50.5t-115.5 126.5l-33 -150h-229zM311 436q0 -113 61.5 -182.5t162.5 -69.5q119 0 212 103.5t93 277.5q0 121 -61.5 185.5t-170.5 64.5 q-125 0 -211 -106.5t-86 -272.5z" />
<glyph unicode="c" horiz-adv-x="1046" d="M10 434q0 260 163 427t392 167q186 0 290.5 -96.5t133.5 -229.5l-215 -67q-16 76 -73.5 127t-151.5 51q-123 0 -213 -99.5t-90 -275.5q0 -117 66.5 -186.5t176.5 -69.5q162 0 250 166l197 -80q-61 -129 -178 -214t-281 -85q-211 0 -339 131t-128 334z" />
<glyph unicode="d" horiz-adv-x="1179" d="M16 422q0 252 146.5 427t367.5 175q217 0 297 -141l127 600h236l-264 -1245q-23 -113 -23 -189q0 -35 2 -49h-219q-2 18 -2 51q0 35 4 72q-111 -141 -274 -141q-186 0 -292 123.5t-106 316.5zM254 428q0 -111 56.5 -177.5t156.5 -66.5q123 0 207 113t84 287 q0 104 -54.5 167.5t-154.5 63.5q-135 0 -215 -118.5t-80 -268.5z" />
<glyph unicode="e" horiz-adv-x="1093" d="M16 426q0 268 163 435t378 167q201 0 314.5 -113.5t113.5 -298.5q0 -92 -29 -182h-710q-2 -10 -2 -22q0 -106 66.5 -173t168.5 -67q92 0 156.5 41t97.5 104l182 -100q-55 -106 -170.5 -177t-271.5 -71q-193 0 -325 124t-132 333zM272 608h480q0 2 1 13.5t1 17.5 q0 76 -49.5 133t-153.5 57q-106 0 -178 -63.5t-101 -157.5z" />
<glyph unicode="f" horiz-adv-x="714" d="M55 0l168 793h-168l43 204h170l39 183q66 315 375 315q96 0 149 -31l-43 -196l-11 4t-31.5 8t-43.5 4q-135 0 -165 -147l-31 -140h219l-43 -204h-219l-168 -793h-240z" />
<glyph unicode="g" horiz-adv-x="1173" d="M-100 -47l215 47q0 -104 64.5 -159.5t158.5 -55.5q252 0 319 303l17 74q-78 -109 -248 -109q-186 0 -296 118t-110 298q0 233 143.5 391t362.5 158q109 0 187 -40t114 -104l25 123h235l-188 -907q-23 -104 -63.5 -191t-105 -161t-165 -116t-227.5 -42 q-209 0 -323.5 111.5t-114.5 261.5zM258 485q0 -104 57.5 -169.5t163.5 -65.5q123 0 202 93t79 251q0 90 -57.5 153.5t-159.5 63.5q-123 0 -204 -89t-81 -237z" />
<glyph unicode="h" horiz-adv-x="1165" d="M4 0l313 1483h238l-121 -568q96 111 273 111q143 0 226 -83t83 -222q0 -63 -10 -105l-134 -616h-235l127 590q8 45 8 63q0 76 -44 119t-124 43q-94 0 -155.5 -67.5t-83.5 -167.5l-125 -580h-236z" />
<glyph unicode="i" horiz-adv-x="548" d="M0 0l213 997h236l-213 -997h-236zM248 1337q0 70 51 119t119 49q61 0 100 -39t39 -96q0 -72 -51 -121t-119 -49q-61 0 -100 40t-39 97z" />
<glyph unicode="j" horiz-adv-x="546" d="M-274 -381l38 184q43 -14 86 -14q59 0 89.5 27.5t44.5 95.5l233 1085h234l-242 -1140q-29 -133 -114 -205t-206 -72q-115 0 -163 39zM252 1337q0 70 51 119t119 49q61 0 100 -39t39 -96q0 -72 -52 -121t-118 -49q-61 0 -100 40t-39 97z" />
<glyph unicode="k" horiz-adv-x="1116" d="M4 0l313 1483h236l-184 -862l442 376h336l-494 -413l287 -584h-262l-205 432l-176 -147l-59 -285h-234z" />
<glyph unicode="l" horiz-adv-x="544" d="M0 0l315 1483h236l-315 -1483h-236z" />
<glyph unicode="m" horiz-adv-x="1746" d="M4 0l174 825q23 104 23 172h229q0 -49 -8 -100q104 129 280 129q90 0 157 -42t99 -114q121 156 338 156q129 0 215 -83t86 -220q0 -49 -10 -96l-133 -627h-235l129 604q6 31 6 58q0 72 -40 113.5t-118 41.5q-86 0 -143.5 -61.5t-77.5 -161.5l-127 -594h-236l127 604 q6 31 6 62q0 70 -39.5 110.5t-117.5 40.5q-88 0 -144.5 -60.5t-78.5 -162.5l-127 -594h-234z" />
<glyph unicode="n" horiz-adv-x="1165" d="M4 0l174 825q23 104 23 172h229q0 -55 -10 -104q98 133 295 133q137 0 219 -85t82 -224q0 -57 -12 -111l-132 -606h-235l127 590q8 45 8 63q0 76 -44 119t-124 43q-94 0 -155.5 -67.5t-83.5 -167.5l-125 -580h-236z" />
<glyph unicode="o" horiz-adv-x="1128" d="M16 432q0 258 160 427t393 169q209 0 330 -131t121 -330q0 -250 -156.5 -424t-394.5 -174q-205 0 -329 133.5t-124 329.5zM254 440q0 -117 62.5 -187.5t164.5 -70.5q119 0 209 100.5t90 276.5q0 119 -60.5 186.5t-166.5 69.5q-123 0 -211 -104.5t-88 -270.5z" />
<glyph unicode="p" horiz-adv-x="1189" d="M-102 -389l258 1214q22 100 22 166v6h230q-1 -57 -9 -108q47 61 127 97t170 36q186 0 284.5 -119t98.5 -307q0 -268 -147.5 -445.5t-374.5 -177.5q-104 0 -189 45t-126 117l-111 -524h-233zM313 436q0 -119 61.5 -185.5t164.5 -66.5q117 0 209 103.5t92 277.5 q0 119 -62 182.5t-166 63.5q-125 0 -212 -104.5t-87 -270.5z" />
<glyph unicode="q" d="M10 422q0 252 147.5 426t368.5 174q119 0 195 -42t108 -99l25 116h231l-294 -1386h-236l100 471q-100 -100 -247 -100q-182 0 -290 125.5t-108 314.5zM246 428q0 -111 59.5 -177.5t163.5 -66.5q123 0 206 109.5t83 281.5q0 111 -55.5 174.5t-159.5 63.5 q-135 0 -216 -117.5t-81 -267.5z" />
<glyph unicode="r" horiz-adv-x="784" d="M4 0l174 825q23 104 23 172h229q0 -82 -14 -137q98 147 301 148q41 0 71 -7l-51 -245q-47 10 -84 10q-250 0 -315 -299l-100 -467h-234z" />
<glyph unicode="s" horiz-adv-x="907" d="M-27 309l205 39q0 -82 48 -137t134 -55q68 0 105 33.5t37 80.5q0 70 -84 107l-127 55q-197 86 -197 268q0 133 103.5 230.5t269.5 97.5q100 0 174 -29.5t113 -79t57 -95.5t20 -93l-206 -43q-4 59 -43 107.5t-127 48.5q-61 0 -98.5 -33t-37.5 -80q0 -68 70 -98l131 -58 q215 -94 215 -284q0 -123 -97 -222.5t-280 -99.5q-111 0 -190.5 35t-119.5 91.5t-57.5 109.5t-17.5 104z" />
<glyph unicode="t" horiz-adv-x="731" d="M47 786l45 211h37q162 0 199 162l30 144h215l-67 -306h199l-46 -211h-196l-98 -464q-6 -25 -7 -46q0 -83 106 -83h3q33 0 70 6l-39 -191q-47 -20 -119 -20q-121 0 -191.5 63t-70.5 174q0 49 16 121l94 440h-180z" />
<glyph unicode="u" horiz-adv-x="1140" d="M53 303q0 53 13 111l124 583h238l-123 -573q-10 -47 -10 -80q0 -162 164 -162q90 0 149.5 66.5t81.5 167.5l123 581h234l-160 -770q-23 -113 -23 -182q0 -23 2 -45h-229q-4 25 -4 59q0 31 2 50q-41 -63 -111.5 -97.5t-144.5 -34.5q-154 0 -240 90.5t-86 235.5z" />
<glyph unicode="v" horiz-adv-x="1024" d="M68 997h243l99 -712l387 712h264l-584 -997h-233z" />
<glyph unicode="w" horiz-adv-x="1613" d="M78 997h227l57 -684l357 684h250l84 -686l338 686h249l-520 -997h-237l-90 713l-371 -713h-246z" />
<glyph unicode="x" horiz-adv-x="1038" d="M-143 0l479 510l-260 487h258q145 -293 160 -317l280 317h295q-8 -8 -207.5 -220t-261.5 -277q174 -330 268 -500h-258l-168 330l-292 -330h-293z" />
<glyph unicode="y" horiz-adv-x="1054" d="M-70 -389l359 553l-232 833h252l154 -589l358 589h271l-897 -1386h-265z" />
<glyph unicode="z" horiz-adv-x="989" d="M-66 0l46 209l620 582h-481l45 206h788l-45 -204l-628 -584h518l-43 -209h-820z" />
<glyph unicode="{" horiz-adv-x="741" d="M49 557l43 207q96 0 167 47t91 147l60 291q43 213 148.5 300t297.5 87h68l-39 -182h-45q-102 0 -155.5 -46t-76.5 -153l-73 -340q-23 -104 -89.5 -171.5t-171.5 -84.5q72 -20 114 -72t42 -130q0 -23 -8 -68l-64 -307q-8 -39 -8 -74q0 -141 160 -141h41l-39 -180h-45 q-156 0 -236.5 71.5t-80.5 208.5q0 59 14 119l59 276q6 31 6 56q0 139 -180 139z" />
<glyph unicode="|" horiz-adv-x="557" d="M-45 -313l414 1949h200l-413 -1949h-201z" />
<glyph unicode="}" horiz-adv-x="745" d="M-209 -313l39 180h43q193 0 238 211l71 340q20 96 89 160.5t173 87.5q-76 18 -117.5 69t-41.5 125q0 29 6 60l69 333q8 39 9 78q0 63 -37 93t-117 30h-49l39 182h57q147 0 227 -67.5t80 -200.5q0 -53 -12 -115l-65 -295q-6 -31 -7 -55q1 -141 181 -141l-43 -207 q-217 0 -258 -193l-62 -288q-82 -387 -461 -387h-51z" />
<glyph unicode="~" horiz-adv-x="1325" d="M102 561q119 205 326 205q104 0 207 -55l94 -52q57 -31 107 -30q122 -1 190 108l135 -108q-115 -203 -323 -203q-102 0 -209 57l-97 52q-51 29 -106 28q-106 0 -188 -110z" />
<glyph unicode="&#xa1;" horiz-adv-x="522" d="M-117 -438l277 1022h170l-154 -1022h-293zM150 862q0 68 49 117t112 49q61 0 100.5 -38t39.5 -95q0 -68 -48.5 -117t-117.5 -49q-59 0 -97 38t-38 95z" />
<glyph unicode="&#xa2;" horiz-adv-x="1132" d="M78 600q0 229 143.5 383t349.5 172l37 172h185l-39 -186q221 -59 274 -289l-211 -64q-20 100 -108 144l-119 -563q125 20 194 149l191 -74q-57 -119 -166 -198.5t-262 -83.5l-35 -162h-184l39 188q-133 43 -211 155t-78 257zM307 604q0 -145 105 -205l114 545 q-96 -27 -157.5 -114t-61.5 -226z" />
<glyph unicode="&#xa3;" horiz-adv-x="1222" d="M-10 0l47 231q131 31 204.5 121t82.5 207h-207l41 195h145q-18 84 -18 153q0 190 121.5 320.5t324.5 130.5q184 0 283.5 -94.5t99.5 -243.5q0 -45 -8 -62l-221 -28q6 20 6 55q0 72 -44 120t-126 48q-92 0 -149.5 -61.5t-57.5 -178.5q0 -53 21 -159h376l-41 -195h-315 q-8 -115 -71.5 -208t-174.5 -140h377q90 0 147.5 56.5t69.5 142.5l211 -41q-29 -170 -142.5 -269.5t-275.5 -99.5h-706z" />
<glyph unicode="&#xa4;" horiz-adv-x="1226" d="M68 115l149 151q-65 101 -65 230q0 127 67 233l-151 154l147 145l152 -156q104 61 225 62q119 0 217 -57l149 151l146 -145l-143 -148q72 -109 71 -239q0 -129 -69 -238l141 -143l-143 -144l-148 148q-100 -59 -221 -60q-125 0 -230 64l-149 -152zM354 495.5 q0 -104.5 67.5 -172t170 -67.5t169 67.5t66.5 172t-66.5 172t-169 67.5t-170 -67.5t-67.5 -172z" />
<glyph unicode="&#xa5;" horiz-adv-x="1234" d="M68 293l36 174h351l30 151h-348l37 170h236l-209 539h264l178 -516l383 516h272l-426 -539h242l-37 -170h-356l-33 -151h359l-39 -174h-355l-61 -293h-236l62 293h-350z" />
<glyph unicode="&#xa6;" horiz-adv-x="557" d="M-45 -315l174 817h201l-174 -817h-201zM197 819l172 817h200l-172 -817h-200z" />
<glyph unicode="&#xa7;" horiz-adv-x="1167" d="M-8 -90q0 53 6 82l229 16q-8 -37 -8 -69q0 -82 48 -128.5t139 -46.5q78 0 135 49.5t57 133.5q0 80 -72 131l-186 131q-102 72 -159.5 146.5t-57.5 172.5q0 115 66.5 189t160.5 108q-115 102 -114 254q0 178 138 291t316 113q188 0 292.5 -97.5t104.5 -244.5q0 -45 -8 -80 l-231 -19q8 33 8 70q0 80 -48 126t-134 46q-80 0 -138.5 -50t-58.5 -130q0 -78 76 -131l184 -131q104 -76 160.5 -145.5t56.5 -168.5q0 -117 -66.5 -193.5t-158.5 -111.5q113 -106 113 -250q0 -182 -138.5 -294.5t-318.5 -112.5q-186 0 -289.5 97t-103.5 247zM352 573 q0 -74 76 -129l182 -131q115 53 115 164q0 74 -76 129l-182 131q-115 -53 -115 -164z" />
<glyph unicode="&#xa8;" horiz-adv-x="784" d="M-53 1266q0 59 43 103t104 44q53 0 87 -36t34 -85q0 -61 -46 -103t-106 -42q-49 0 -82.5 35t-33.5 84zM362 1266q0 59 44.5 103t103.5 44q53 0 87 -36t34 -85q0 -61 -46 -103t-104 -42q-51 0 -85 35t-34 84z" />
<glyph unicode="&#xa9;" horiz-adv-x="1675" d="M72 727q0 313 219 534.5t530 221.5q313 0 534.5 -222.5t221.5 -533.5q0 -313 -221 -535.5t-535 -222.5q-311 0 -530 222.5t-219 535.5zM240 727q0 -254 169 -428t412 -174q246 0 415 174t169 428t-169 427t-415 173q-244 0 -412.5 -173t-168.5 -427zM434 676 q0 205 127 336t309 131q147 0 229.5 -75t102.5 -181l-166 -53q-14 61 -59 103t-119 42q-96 0 -169 -79t-73 -220q0 -92 54.5 -147.5t140.5 -55.5q129 0 199 131l151 -63q-115 -233 -368 -234q-154 0 -256.5 101.5t-102.5 263.5z" />
<glyph unicode="&#xaa;" horiz-adv-x="940" d="M113 924q0 178 103 300t257 122q158 0 205 -99l18 82h178l-114 -547q-12 -66 -12 -120v-37h-170q-2 23 -3 37q0 27 3 49q-66 -98 -191 -98.5t-199.5 89t-74.5 222.5zM295 932q0 -76 38 -119t103 -43q80 0 134.5 70.5t54.5 187.5q0 72 -36 113t-102 41q-88 0 -140 -77 t-52 -173z" />
<glyph unicode="&#xab;" horiz-adv-x="1026" d="M20 606l357 391h244l-369 -409l192 -383h-221zM446 606l357 391h244l-369 -409l192 -383h-221z" />
<glyph unicode="&#xac;" horiz-adv-x="1275" d="M113 690v199h979v-598h-207v399h-772z" />
<glyph unicode="&#xad;" horiz-adv-x="741" d="M31 494l45 211h575l-43 -211h-577z" />
<glyph unicode="&#xae;" horiz-adv-x="1675" d="M72 727q0 313 219 534.5t530 221.5q313 0 534.5 -222.5t221.5 -533.5q0 -313 -221 -535.5t-535 -222.5q-311 0 -530 222.5t-219 535.5zM240 727q0 -254 169 -428t412 -174q246 0 415 174t169 428t-169 427t-415 173q-244 0 -412.5 -173t-168.5 -427zM500 319l174 820h287 q104 0 170.5 -69t66.5 -163q0 -102 -63.5 -179t-163.5 -101l119 -305h-179l-104 290h-72l-61 -293h-174zM764 756h96q74 0 119 37.5t45 105.5q0 94 -115 94h-92z" />
<glyph unicode="&#xaf;" horiz-adv-x="671" d="M-70 1182l39 184h568l-39 -184h-568z" />
<glyph unicode="&#xb0;" horiz-adv-x="806" d="M102 995q0 152 108.5 257.5t256.5 105.5q129 0 214 -86t85 -211q0 -152 -112 -256.5t-253 -104.5q-129 0 -214 85t-85 210zM291 1008q0 -57 34 -93t93 -36q63 0 111.5 48t48.5 126q0 57 -35 92t-94 35q-61 0 -109.5 -49.5t-48.5 -122.5z" />
<glyph unicode="&#xb1;" horiz-adv-x="1236" d="M133 96v197h930v-197h-930zM133 637v192h363v265h202v-265h365v-192h-365v-262h-202v262h-363z" />
<glyph unicode="&#xb2;" horiz-adv-x="782" d="M94 702q17 249 250 351l131 57q106 47 107 121q0 33 -23.5 59.5t-69.5 26.5q-57 0 -89.5 -37t-32.5 -104l-172 6q0 129 82.5 206.5t218.5 77.5q129 0 200.5 -64.5t71.5 -160.5q0 -170 -209 -260l-156 -68q-45 -20 -57 -55h350l-32 -156h-570z" />
<glyph unicode="&#xb3;" horiz-adv-x="874" d="M143 932q0 16 4 33l168 12q-2 -10 -2 -21q0 -47 34 -80.5t85 -33.5q59 0 94 30.5t35 85.5q0 43 -30.5 69t-73.5 26q-26 -1 -51 -11l-56 132l228 126h-334l32 152h558l-35 -174l-221 -121q76 -16 121.5 -70.5t45.5 -132.5q0 -109 -88 -187.5t-225 -78.5q-127 0 -208 68.5 t-81 175.5z" />
<glyph unicode="&#xb4;" horiz-adv-x="565" d="M-86 1122l240 303h297l-332 -303h-205z" />
<glyph unicode="&#xb5;" horiz-adv-x="1206" d="M119 -389v1386h239v-585q0 -100 49.5 -164t151.5 -64q100 0 154.5 61.5t54.5 162.5v589h238v-815q0 -100 10 -182h-228q-8 41 -8 113q-39 -68 -116.5 -105t-165.5 -37q-78 0 -142 29v-389h-237z" />
<glyph unicode="&#xb6;" horiz-adv-x="1329" d="M113 973q0 221 171 350t398 129h750l-39 -190h-201l-352 -1665h-195l352 1665h-192l-354 -1665h-195l221 1038h-18q-150 0 -248 96t-98 242z" />
<glyph unicode="&#xb7;" horiz-adv-x="569" d="M102 594q0 70 52.5 123t126.5 53q63 0 104 -41t41 -100q0 -76 -52 -127t-124 -51q-66 0 -107 42t-41 101z" />
<glyph unicode="&#xb8;" horiz-adv-x="585" d="M-145 -315l110 82q47 -94 148 -95q37 0 62.5 16.5t25.5 47.5q0 29 -23.5 46t-58.5 17q-20 0 -35 -2l-47 94l147 136h183l-152 -133q70 -8 110 -51.5t40 -102.5q0 -80 -67 -138.5t-181 -58.5q-100 0 -169 47.5t-93 94.5z" />
<glyph unicode="&#xb9;" horiz-adv-x="610" d="M137 1190l25 121q80 2 140 43t85 98h164l-162 -750h-186l108 488h-174z" />
<glyph unicode="&#xba;" horiz-adv-x="903" d="M113 930q0 182 113.5 301t279.5 119q145 0 232 -93.5t87 -232.5q0 -174 -110.5 -297t-280.5 -123q-145 0 -233 93.5t-88 232.5zM297 938q0 -78 41 -123t106 -45q78 0 137.5 65.5t59.5 180.5q0 78 -39.5 122t-109.5 44q-82 0 -138.5 -70t-56.5 -174z" />
<glyph unicode="&#xbb;" horiz-adv-x="1036" d="M-82 205l371 409l-195 383h221l203 -401l-356 -391h-244zM360 205l371 409l-194 383h221l203 -401l-357 -391h-244z" />
<glyph unicode="&#xbc;" horiz-adv-x="1648" d="M27 0l1226 1327h224l-1225 -1327h-225zM143 1065l25 121q80 2 140.5 43t84.5 98h164l-162 -749h-186l108 487h-174zM772 152l39 196l418 402h207l-97 -449h129l-32 -149h-127l-2 -17l-13.5 -54t-17.5 -81h-182l30 152h-352zM952 301h203l57 250z" />
<glyph unicode="&#xbd;" horiz-adv-x="1697" d="M27 0l1226 1327h224l-1225 -1327h-225zM143 1065l25 121q80 2 140.5 43t84.5 98h164l-162 -749h-186l108 487h-174zM885 0q17 248 250 350l131 58q106 47 106 120q0 33 -23.5 59.5t-68.5 26.5q-57 0 -90 -36.5t-33 -104.5l-172 6q0 129 83 207t218 78q129 0 201 -64.5 t72 -160.5q0 -170 -209 -260l-156 -68q-45 -20 -57 -55h350l-33 -156h-569z" />
<glyph unicode="&#xbe;" horiz-adv-x="1847" d="M102 807q0 16 4 33l168 12q-2 -10 -2 -21q0 -47 34 -80.5t85 -33.5q59 0 94 30.5t35 86.5q0 43 -30.5 68.5t-73.5 25.5q-26 0 -51 -10l-56 131l228 127h-334l33 151h557l-35 -174l-221 -121q76 -16 122 -70.5t46 -132.5q0 -109 -88.5 -187.5t-225.5 -78.5 q-127 0 -208 68.5t-81 175.5zM227 0l1227 1327h223l-1224 -1327h-226zM971 152l39 196l417 402h207l-96 -449h129l-33 -149h-127l-4 -17q-2 -16 -11 -54t-17 -81h-183l31 152h-352zM1151 301h203l57 250z" />
<glyph unicode="&#xbf;" horiz-adv-x="923" d="M-139 -115q0 266 280 426l103 60q131 74 143 215h199q-10 -262 -232 -389l-110 -64q-135 -76 -135 -211q0 -74 49 -125t147 -51q127 0 194.5 85t67.5 206l228 -27q-4 -209 -144.5 -344t-363.5 -135q-201 0 -313.5 104.5t-112.5 249.5zM367 862q0 68 50 117t113 49 q61 0 99.5 -38t38.5 -95q0 -68 -48.5 -117t-115.5 -49q-61 0 -99 38t-38 95z" />
<glyph unicode="&#xc0;" horiz-adv-x="1368" d="M-147 0l858 1452h276l242 -1452h-252l-55 365h-584l-209 -365h-276zM467 592h420l-88 584zM530 1808h283l154 -254h-207z" />
<glyph unicode="&#xc1;" horiz-adv-x="1368" d="M-147 0l858 1452h276l242 -1452h-252l-55 365h-584l-209 -365h-276zM467 592h420l-88 584zM727 1554l252 254h313l-331 -254h-234z" />
<glyph unicode="&#xc2;" horiz-adv-x="1368" d="M-147 0l858 1452h276l242 -1452h-252l-55 365h-584l-209 -365h-276zM467 592h420l-88 584zM479 1554l289 254h264l189 -254h-205l-131 132l-185 -132h-221z" />
<glyph unicode="&#xc3;" horiz-adv-x="1368" d="M-147 0l858 1452h276l242 -1452h-252l-55 365h-584l-209 -365h-276zM467 592h420l-88 584zM502 1550q14 139 81.5 204t166.5 65q74 0 145 -47l16 -13q53 -35 84 -35q59 0 78 91h160q-45 -270 -244 -271q-70 0 -147 49l-17 11q-53 35 -86 34q-63 0 -77 -88h-160z" />
<glyph unicode="&#xc4;" horiz-adv-x="1368" d="M-147 0l858 1452h276l242 -1452h-252l-55 365h-584l-209 -365h-276zM422 1667q0 61 44 106.5t107 45.5q53 0 87 -35t34 -86q0 -66 -45 -109t-104 -43q-53 0 -88 34t-35 87zM467 592h420l-88 584zM1053 1667q0 61 44 106.5t107 45.5q53 0 87 -35t34 -86q0 -66 -45 -109 t-104 -43q-53 0 -88 34t-35 87z" />
<glyph unicode="&#xc5;" horiz-adv-x="1368" d="M-147 0l815 1378q-58 64 -58 144q0 113 82 190.5t191 77.5q98 0 164.5 -63.5t66.5 -157.5q0 -129 -113 -211l228 -1358h-252l-55 365h-584l-209 -365h-276zM467 592h420l-88 584zM762 1538q0 -39 24.5 -62.5t65.5 -23.5q43 0 74.5 29.5t31.5 74.5q0 39 -24.5 62.5 t-65.5 23.5t-73.5 -29.5t-32.5 -74.5z" />
<glyph unicode="&#xc6;" horiz-adv-x="2127" d="M-152 0l1266 1452h1049l-49 -229h-644l-81 -385h583l-47 -224h-584l-81 -385h645l-50 -229h-890l77 362h-569l-309 -362h-316zM653 573h434l144 676z" />
<glyph unicode="&#xc7;" horiz-adv-x="1472" d="M68 623q0 201 67.5 367.5t179 272t251 163t286.5 57.5q262 0 413.5 -134.5t188.5 -330.5l-235 -72q-27 131 -124.5 218t-260.5 87q-225 0 -370 -176t-145 -438q0 -199 108 -317.5t292 -118.5q289 0 422 297l217 -88q-78 -184 -231.5 -304.5t-374.5 -134.5l-88 -77 q70 -8 109.5 -51.5t39.5 -102.5q0 -80 -66.5 -138.5t-181.5 -58.5q-100 0 -168.5 47.5t-93.5 94.5l111 82q47 -94 147 -95q37 0 62.5 16.5t25.5 47.5q0 29 -23.5 46t-58.5 17q-12 0 -22 -2h-13l-47 94l97 89q-231 37 -372.5 213t-141.5 430z" />
<glyph unicode="&#xc8;" horiz-adv-x="1183" d="M20 0l308 1452h891l-50 -229h-643l-82 -385h584l-49 -224h-582l-84 -385h645l-47 -229h-891zM502 1808h282l154 -254h-207z" />
<glyph unicode="&#xc9;" horiz-adv-x="1183" d="M20 0l308 1452h891l-50 -229h-643l-82 -385h584l-49 -224h-582l-84 -385h645l-47 -229h-891zM627 1554l252 254h313l-332 -254h-233z" />
<glyph unicode="&#xca;" horiz-adv-x="1183" d="M20 0l308 1452h891l-50 -229h-643l-82 -385h584l-49 -224h-582l-84 -385h645l-47 -229h-891zM418 1554l289 254h264l188 -254h-205l-131 132l-184 -132h-221z" />
<glyph unicode="&#xcb;" horiz-adv-x="1183" d="M20 0l308 1452h891l-50 -229h-643l-82 -385h584l-49 -224h-582l-84 -385h645l-47 -229h-891zM444 1667q0 61 44 105.5t108 44.5q53 0 86 -34t33 -85q0 -63 -44 -106.5t-104 -43.5q-53 0 -88 34t-35 85zM899 1667q0 61 44 105.5t106 44.5q53 0 86.5 -35t33.5 -84 q0 -63 -44 -106.5t-103 -43.5q-53 0 -88 34t-35 85z" />
<glyph unicode="&#xcc;" horiz-adv-x="598" d="M20 0l308 1452h250l-308 -1452h-250zM160 1808h282l154 -254h-207z" />
<glyph unicode="&#xcd;" horiz-adv-x="598" d="M20 0l308 1452h250l-308 -1452h-250zM356 1554l252 254h314l-332 -254h-234z" />
<glyph unicode="&#xce;" horiz-adv-x="598" d="M20 0l308 1452h250l-308 -1452h-250zM98 1554l289 254h264l189 -254h-205l-131 132l-185 -132h-221z" />
<glyph unicode="&#xcf;" horiz-adv-x="598" d="M20 0l308 1452h250l-308 -1452h-250zM184 1667q0 57 41 99t101 42q49 0 80.5 -32.5t31.5 -77.5q0 -61 -41 -101.5t-98 -40.5q-49 0 -82 32t-33 79zM537 1667q0 59 40.5 100t100.5 41q49 0 81 -32.5t32 -77.5q0 -61 -42 -101.5t-100 -40.5q-49 0 -80.5 32t-31.5 79z" />
<glyph unicode="&#xd0;" horiz-adv-x="1454" d="M25 647l38 191h158l129 614h416q285 0 452.5 -163t167.5 -431q0 -203 -65.5 -369.5t-176 -271t-247.5 -161t-287 -56.5h-565l135 647h-155zM336 227h278q203 0 363 165t160 456q0 178 -107.5 279.5t-294.5 101.5h-186l-84 -391h307l-39 -191h-309z" />
<glyph unicode="&#xd1;" horiz-adv-x="1523" d="M20 0l308 1452h286l420 -1042l221 1042h248l-309 -1452h-250l-446 1094l-232 -1094h-246zM596 1550q14 139 81.5 204t166.5 65q74 0 145 -47l17 -13q53 -35 84 -35q59 0 77 91h160q-45 -270 -244 -271q-70 0 -147 49l-16 11q-53 35 -86 34q-63 0 -78 -88h-160z" />
<glyph unicode="&#xd2;" horiz-adv-x="1548" d="M68 612q0 203 66.5 372t177 275.5t247.5 165t285 58.5q289 0 462 -177.5t173 -465.5q0 -205 -66.5 -373t-176.5 -274.5t-247 -165t-284 -58.5q-287 0 -462 177t-175 466zM319 631q0 -201 109 -315.5t289 -114.5q223 0 365.5 179t146.5 441q0 201 -108.5 315.5 t-289.5 114.5q-223 0 -366 -179t-146 -441zM594 1808h283l153 -254h-207z" />
<glyph unicode="&#xd3;" horiz-adv-x="1548" d="M68 612q0 203 66.5 372t177 275.5t247.5 165t285 58.5q289 0 462 -177.5t173 -465.5q0 -205 -66.5 -373t-176.5 -274.5t-247 -165t-284 -58.5q-287 0 -462 177t-175 466zM319 631q0 -201 109 -315.5t289 -114.5q223 0 365.5 179t146.5 441q0 201 -108.5 315.5 t-289.5 114.5q-223 0 -366 -179t-146 -441zM774 1554l252 254h313l-331 -254h-234z" />
<glyph unicode="&#xd4;" horiz-adv-x="1548" d="M68 612q0 203 66.5 372t177 275.5t247.5 165t285 58.5q289 0 462 -177.5t173 -465.5q0 -205 -66.5 -373t-176.5 -274.5t-247 -165t-284 -58.5q-287 0 -462 177t-175 466zM319 631q0 -201 109 -315.5t289 -114.5q223 0 365.5 179t146.5 441q0 201 -108.5 315.5 t-289.5 114.5q-223 0 -366 -179t-146 -441zM526 1554l289 254h264l189 -254h-205l-131 132l-184 -132h-222z" />
<glyph unicode="&#xd5;" horiz-adv-x="1548" d="M68 612q0 203 66.5 372t177 275.5t247.5 165t285 58.5q289 0 462 -177.5t173 -465.5q0 -205 -66.5 -373t-176.5 -274.5t-247 -165t-284 -58.5q-287 0 -462 177t-175 466zM319 631q0 -201 109 -315.5t289 -114.5q223 0 365.5 179t146.5 441q0 201 -108.5 315.5 t-289.5 114.5q-223 0 -366 -179t-146 -441zM571 1550q14 139 82 204t166 65q74 0 146 -47l16 -13q53 -35 84 -35q59 0 78 91h160q-45 -270 -244 -271q-70 0 -148 49l-16 11q-53 35 -86 34q-63 0 -78 -88h-160z" />
<glyph unicode="&#xd6;" horiz-adv-x="1548" d="M68 612q0 203 66.5 372t177 275.5t247.5 165t285 58.5q289 0 462 -177.5t173 -465.5q0 -205 -66.5 -373t-176.5 -274.5t-247 -165t-284 -58.5q-287 0 -462 177t-175 466zM319 631q0 -201 109 -315.5t289 -114.5q223 0 365.5 179t146.5 441q0 201 -108.5 315.5 t-289.5 114.5q-223 0 -366 -179t-146 -441zM440 1667q0 61 44 106.5t108 45.5q53 0 87 -35t34 -86q0 -66 -45 -109t-105 -43q-53 0 -88 34t-35 87zM1128 1667q0 61 44.5 106.5t107.5 45.5q53 0 87 -35t34 -86q0 -66 -45 -109t-105 -43q-53 0 -88 34t-35 87z" />
<glyph unicode="&#xd7;" horiz-adv-x="1142" d="M88 246l344 352l-342 350l141 142l340 -351l340 351l142 -142l-342 -350l344 -352l-142 -142l-342 351l-342 -351z" />
<glyph unicode="&#xd8;" horiz-adv-x="1548" d="M23 57l155 168q-110 162 -110 387q0 203 66.5 372t177 275.5t247.5 165t285 58.5q238 0 395 -121l154 166l145 -131l-164 -176q104 -162 105 -381q0 -205 -66.5 -373t-176.5 -274.5t-247 -165t-284 -58.5q-229 0 -390 115l-147 -158zM319 631q0 -119 41 -211l709 760 q-100 72 -238 71q-223 0 -366.5 -179t-145.5 -441zM485 266q96 -66 232 -65q223 0 365.5 179t146.5 441q0 113 -37 203z" />
<glyph unicode="&#xd9;" horiz-adv-x="1374" d="M104 418q0 66 17 147l186 887h242l-187 -905q-12 -55 -12 -103q0 -113 65.5 -176t198.5 -63q121 0 201 71.5t109 208.5l202 967h248l-211 -1001q-49 -229 -199.5 -355.5t-365.5 -126.5q-225 0 -359.5 121t-134.5 328zM559 1808h283l153 -254h-207z" />
<glyph unicode="&#xda;" horiz-adv-x="1374" d="M104 418q0 66 17 147l186 887h242l-187 -905q-12 -55 -12 -103q0 -113 65.5 -176t198.5 -63q121 0 201 71.5t109 208.5l202 967h248l-211 -1001q-49 -229 -199.5 -355.5t-365.5 -126.5q-225 0 -359.5 121t-134.5 328zM686 1554l252 254h313l-331 -254h-234z" />
<glyph unicode="&#xdb;" horiz-adv-x="1374" d="M104 418q0 66 17 147l186 887h242l-187 -905q-12 -55 -12 -103q0 -113 65.5 -176t198.5 -63q121 0 201 71.5t109 208.5l202 967h248l-211 -1001q-49 -229 -199.5 -355.5t-365.5 -126.5q-225 0 -359.5 121t-134.5 328zM479 1554l289 254h264l189 -254h-205l-131 132 l-185 -132h-221z" />
<glyph unicode="&#xdc;" horiz-adv-x="1374" d="M104 418q0 66 17 147l186 887h242l-187 -905q-12 -55 -12 -103q0 -113 65.5 -176t198.5 -63q121 0 201 71.5t109 208.5l202 967h248l-211 -1001q-49 -229 -199.5 -355.5t-365.5 -126.5q-225 0 -359.5 121t-134.5 328zM500 1667q0 61 44 106.5t107 45.5q53 0 87 -35 t34 -86q0 -66 -45 -109t-104 -43q-53 0 -88 34t-35 87zM963 1667q0 61 44 106.5t107 45.5q53 0 87 -35t34 -86q0 -66 -45 -109t-105 -43q-53 0 -87.5 34t-34.5 87z" />
<glyph unicode="&#xdd;" horiz-adv-x="1267" d="M178 1452h260l226 -598l432 598h295l-643 -842l-127 -610h-248l131 618zM633 1554l252 254h313l-332 -254h-233z" />
<glyph unicode="&#xde;" horiz-adv-x="1206" d="M20 0l308 1452h247l-59 -272h229q190 0 307 -108.5t117 -278.5q0 -223 -154.5 -357.5t-393.5 -134.5h-289l-66 -301h-246zM377 516h241q133 0 215 67.5t85 190.5q0 86 -56.5 137.5t-165.5 51.5h-223z" />
<glyph unicode="&#xdf;" horiz-adv-x="1202" d="M-4 0l221 1053q45 215 183.5 322.5t320.5 107.5q197 0 310.5 -101.5t113.5 -242.5q0 -238 -248 -353l-53 -24q-70 -33 -70 -86q0 -35 64 -80l53 -41q154 -121 153 -260q0 -121 -91 -224.5t-267 -103.5q-143 0 -232 81t-89 200q0 33 4 49l202 22q-4 -10 -4 -34 q0 -53 30 -92t97 -39q59 0 91 34.5t32 75.5q0 35 -17.5 58.5t-58.5 54.5l-51 39q-154 115 -153 235q0 176 172 264l57 29q72 35 107.5 76t35.5 100.5t-52 107.5t-148 48q-90 0 -163 -62.5t-102 -199.5l-213 -1014h-235z" />
<glyph unicode="&#xe0;" d="M16 422q0 252 146.5 427t367.5 175q121 0 195 -43t104 -102l27 118h231l-161 -759q-20 -102 -21 -189q0 -27 2 -49h-221q-2 18 -2 41q0 37 4 82q-111 -141 -274 -141q-186 0 -292 123.5t-106 316.5zM254 428q0 -111 56.5 -177.5t156.5 -66.5q123 0 207 113t84 287 q0 104 -54.5 167.5t-154.5 63.5q-135 0 -215 -118.5t-80 -268.5zM319 1425h271l117 -303h-185z" />
<glyph unicode="&#xe1;" d="M16 422q0 252 146.5 427t367.5 175q121 0 195 -43t104 -102l27 118h231l-161 -759q-20 -102 -21 -189q0 -27 2 -49h-221q-2 18 -2 41q0 37 4 82q-111 -141 -274 -141q-186 0 -292 123.5t-106 316.5zM254 428q0 -111 56.5 -177.5t156.5 -66.5q123 0 207 113t84 287 q0 104 -54.5 167.5t-154.5 63.5q-135 0 -215 -118.5t-80 -268.5zM494 1122l239 303h297l-332 -303h-204z" />
<glyph unicode="&#xe2;" d="M16 422q0 252 146.5 427t367.5 175q121 0 195 -43t104 -102l27 118h231l-161 -759q-20 -102 -21 -189q0 -27 2 -49h-221q-2 18 -2 41q0 37 4 82q-111 -141 -274 -141q-186 0 -292 123.5t-106 316.5zM254 428q0 -111 56.5 -177.5t156.5 -66.5q123 0 207 113t84 287 q0 104 -54.5 167.5t-154.5 63.5q-135 0 -215 -118.5t-80 -268.5zM264 1124l283 293h252l155 -293h-194l-109 158l-176 -158h-211z" />
<glyph unicode="&#xe3;" d="M16 422q0 252 146.5 427t367.5 175q121 0 195 -43t104 -102l27 118h231l-161 -759q-20 -102 -21 -189q0 -27 2 -49h-221q-2 18 -2 41q0 37 4 82q-111 -141 -274 -141q-186 0 -292 123.5t-106 316.5zM254 428q0 -111 56.5 -177.5t156.5 -66.5q123 0 207 113t84 287 q0 104 -54.5 167.5t-154.5 63.5q-135 0 -215 -118.5t-80 -268.5zM283 1137q16 141 85.5 208.5t168.5 67.5q70 0 145 -49l12 -8q53 -37 86 -37q63 0 82 90h160q-41 -276 -248 -276q-70 0 -143 49l-17 10q-57 35 -88 35q-64 0 -82 -90h-161z" />
<glyph unicode="&#xe4;" d="M16 422q0 252 146.5 427t367.5 175q121 0 195 -43t104 -102l27 118h231l-161 -759q-20 -102 -21 -189q0 -27 2 -49h-221q-2 18 -2 41q0 37 4 82q-111 -141 -274 -141q-186 0 -292 123.5t-106 316.5zM254 428q0 -111 56.5 -177.5t156.5 -66.5q123 0 207 113t84 287 q0 104 -54.5 167.5t-154.5 63.5q-135 0 -215 -118.5t-80 -268.5zM309 1266q0 59 43 103t105 44q53 0 87 -36t34 -85q0 -61 -46.5 -103t-105.5 -42q-49 0 -83 35t-34 84zM725 1266q0 59 44 103t103 44q53 0 87 -36t34 -85q0 -61 -46 -103t-103 -42q-51 0 -85 35t-34 84z" />
<glyph unicode="&#xe5;" d="M16 422q0 252 146.5 427t367.5 175q121 0 195 -43t104 -102l27 118h231l-161 -759q-20 -102 -21 -189q0 -27 2 -49h-221q-2 18 -2 41q0 37 4 82q-111 -141 -274 -141q-186 0 -292 123.5t-106 316.5zM254 428q0 -111 56.5 -177.5t156.5 -66.5q123 0 207 113t84 287 q0 104 -54.5 167.5t-154.5 63.5q-135 0 -215 -118.5t-80 -268.5zM416 1305q0 106 77 176.5t175 70.5q90 0 152.5 -58t62.5 -146q0 -98 -76 -172t-174 -74q-90 0 -153.5 58.5t-63.5 144.5zM557 1319q0 -37 22.5 -58.5t59.5 -21.5q41 0 69.5 26.5t28.5 69.5q0 35 -22.5 57.5 t-59.5 22.5q-39 0 -68.5 -27.5t-29.5 -68.5z" />
<glyph unicode="&#xe6;" horiz-adv-x="1736" d="M-12 260q0 139 100 229.5t254 94.5l274 8q94 4 95 96q0 61 -47.5 104.5t-145.5 43.5q-84 0 -144.5 -43t-80.5 -115l-199 65q37 123 158 204t280 81q225 0 328 -135q145 135 340 135q201 0 313.5 -113.5t112.5 -298.5q0 -92 -29 -182h-708q0 -119 61.5 -190.5t173.5 -71.5 q176 0 254 145l178 -100q-55 -106 -169.5 -177t-270.5 -71q-260 0 -377 201q-141 -199 -385 -199q-172 0 -269 83t-97 206zM225 276q0 -57 43 -89.5t109 -32.5q96 0 181 70.5t104 211.5l-279 -12q-66 -4 -112 -41t-46 -107zM915 608h480q0 2 1 13.5t1 17.5q0 76 -49.5 133 t-153.5 57q-106 0 -178 -62t-101 -159z" />
<glyph unicode="&#xe7;" horiz-adv-x="1046" d="M10 434q0 260 163 427t392 167q186 0 291 -96t133 -230l-215 -67q-16 76 -73.5 127t-151.5 51q-123 0 -213 -99.5t-90 -275.5q0 -117 66.5 -186.5t176.5 -69.5q162 0 250 166l197 -80q-57 -121 -164.5 -203.5t-257.5 -93.5l-88 -77q70 -8 109.5 -51.5t39.5 -102.5 q0 -80 -66.5 -138.5t-180.5 -58.5q-100 0 -169 47.5t-93 94.5l110 82q47 -94 148 -95q37 0 62.5 16.5t25.5 47.5q0 29 -23.5 46t-58.5 17q-14 0 -35 -4l-47 96l100 93q-156 39 -247 160.5t-91 289.5z" />
<glyph unicode="&#xe8;" horiz-adv-x="1093" d="M16 426q0 268 163 435t378 167q201 0 314.5 -113.5t113.5 -298.5q0 -92 -29 -182h-710q-2 -10 -2 -22q0 -106 66.5 -173t168.5 -67q92 0 156.5 41t97.5 104l182 -100q-55 -106 -170.5 -177t-271.5 -71q-193 0 -325 124t-132 333zM272 608h480q0 2 1 13.5t1 17.5 q0 76 -49.5 133t-153.5 57q-106 0 -178 -63.5t-101 -157.5zM344 1425h270l117 -303h-184z" />
<glyph unicode="&#xe9;" horiz-adv-x="1093" d="M16 426q0 268 163 435t378 167q201 0 314.5 -113.5t113.5 -298.5q0 -92 -29 -182h-710q-2 -10 -2 -22q0 -106 66.5 -173t168.5 -67q92 0 156.5 41t97.5 104l182 -100q-55 -106 -170.5 -177t-271.5 -71q-193 0 -325 124t-132 333zM272 608h480q0 2 1 13.5t1 17.5 q0 76 -49.5 133t-153.5 57q-106 0 -178 -63.5t-101 -157.5zM469 1122l240 303h297l-332 -303h-205z" />
<glyph unicode="&#xea;" horiz-adv-x="1093" d="M16 426q0 268 163 435t378 167q201 0 314.5 -113.5t113.5 -298.5q0 -92 -29 -182h-710q-2 -10 -2 -22q0 -106 66.5 -173t168.5 -67q92 0 156.5 41t97.5 104l182 -100q-55 -106 -170.5 -177t-271.5 -71q-193 0 -325 124t-132 333zM262 1124l283 293h252l155 -293h-194 l-109 158l-176 -158h-211zM272 608h480q0 2 1 13.5t1 17.5q0 76 -49.5 133t-153.5 57q-106 0 -178 -63.5t-101 -157.5z" />
<glyph unicode="&#xeb;" horiz-adv-x="1093" d="M16 426q0 268 163 435t378 167q201 0 314.5 -113.5t113.5 -298.5q0 -92 -29 -182h-710q-2 -10 -2 -22q0 -106 66.5 -173t168.5 -67q92 0 156.5 41t97.5 104l182 -100q-55 -106 -170.5 -177t-271.5 -71q-193 0 -325 124t-132 333zM272 608h480q0 2 1 13.5t1 17.5 q0 76 -49.5 133t-153.5 57q-106 0 -178 -63.5t-101 -157.5zM291 1266q0 59 43 103t104 44q53 0 87 -36t34 -85q0 -61 -46 -103t-105 -42q-49 0 -83 35t-34 84zM707 1266q0 59 44 103t103 44q53 0 87 -36t34 -85q0 -61 -46 -103t-104 -42q-51 0 -84.5 35t-33.5 84z" />
<glyph unicode="&#xec;" horiz-adv-x="548" d="M0 0l213 997h238l-213 -997h-238zM59 1425h271l116 -303h-184z" />
<glyph unicode="&#xed;" horiz-adv-x="548" d="M0 0l213 997h238l-213 -997h-238zM242 1122l239 303h297l-332 -303h-204z" />
<glyph unicode="&#xee;" horiz-adv-x="548" d="M0 0l213 997h238l-213 -997h-238zM4 1124l283 293h252l155 -293h-194l-109 158l-176 -158h-211z" />
<glyph unicode="&#xef;" horiz-adv-x="548" d="M0 0l213 997h238l-213 -997h-238zM98 1266q0 55 40 97t98 42q51 0 82.5 -33t31.5 -80q0 -57 -42 -96t-97 -39q-51 0 -82 31t-31 78zM418 1266q0 55 40 97t97 42q51 0 83 -33t32 -80q0 -57 -42 -96t-98 -39q-51 0 -81.5 31t-30.5 78z" />
<glyph unicode="&#xf0;" horiz-adv-x="1126" d="M8 414q0 221 144.5 375.5t365.5 154.5q98 0 176 -36t117 -95q-20 168 -125 291l-264 -109l-60 148l189 78q-98 61 -215 84l78 186q197 -29 366 -176l240 98l61 -149l-188 -76q143 -199 143 -473q0 -332 -157.5 -539t-415.5 -207q-209 0 -332 128t-123 317zM246 416 q0 -100 60.5 -170t166.5 -70q117 0 206 90t89 246q0 109 -65.5 172.5t-170.5 63.5q-119 0 -202.5 -88.5t-83.5 -243.5z" />
<glyph unicode="&#xf1;" horiz-adv-x="1165" d="M4 0l174 825q23 104 23 172h229q0 -55 -10 -104q98 133 295 133q137 0 219 -85t82 -224q0 -57 -12 -111l-132 -606h-235l127 590q8 45 8 63q0 76 -44 119t-124 43q-94 0 -155.5 -67.5t-83.5 -167.5l-125 -580h-236zM307 1137q16 141 86 208.5t168 67.5q70 0 146 -49 l12 -8q53 -37 86 -37q63 0 82 90h160q-41 -276 -248 -276q-70 0 -144 49l-16 10q-57 35 -88 35q-64 0 -82 -90h-162z" />
<glyph unicode="&#xf2;" horiz-adv-x="1128" d="M16 432q0 258 160 427t393 169q209 0 330 -131t121 -330q0 -250 -156.5 -424t-394.5 -174q-205 0 -329 133.5t-124 329.5zM254 440q0 -117 62.5 -187.5t164.5 -70.5q119 0 209 100.5t90 276.5q0 119 -60.5 186.5t-166.5 69.5q-123 0 -211 -104.5t-88 -270.5zM336 1425 h270l117 -303h-184z" />
<glyph unicode="&#xf3;" horiz-adv-x="1128" d="M16 432q0 258 160 427t393 169q209 0 330 -131t121 -330q0 -250 -156.5 -424t-394.5 -174q-205 0 -329 133.5t-124 329.5zM254 440q0 -117 62.5 -187.5t164.5 -70.5q119 0 209 100.5t90 276.5q0 119 -60.5 186.5t-166.5 69.5q-123 0 -211 -104.5t-88 -270.5zM494 1122 l239 303h297l-332 -303h-204z" />
<glyph unicode="&#xf4;" horiz-adv-x="1128" d="M16 432q0 258 160 427t393 169q209 0 330 -131t121 -330q0 -250 -156.5 -424t-394.5 -174q-205 0 -329 133.5t-124 329.5zM254 440q0 -117 62.5 -187.5t164.5 -70.5q119 0 209 100.5t90 276.5q0 119 -60.5 186.5t-166.5 69.5q-123 0 -211 -104.5t-88 -270.5zM274 1124 l283 293h252l156 -293h-195l-108 158l-177 -158h-211z" />
<glyph unicode="&#xf5;" horiz-adv-x="1128" d="M16 432q0 258 160 427t393 169q209 0 330 -131t121 -330q0 -250 -156.5 -424t-394.5 -174q-205 0 -329 133.5t-124 329.5zM252 1137q16 141 86 208.5t168 67.5q70 0 145 -49l13 -8q53 -37 86 -37q63 0 81 90h160q-41 -276 -248 -276q-70 0 -143 49l-16 10q-57 35 -88 35 q-64 0 -82 -90h-162zM254 440q0 -117 62.5 -187.5t164.5 -70.5q119 0 209 100.5t90 276.5q0 119 -60.5 186.5t-166.5 69.5q-123 0 -211 -104.5t-88 -270.5z" />
<glyph unicode="&#xf6;" horiz-adv-x="1128" d="M16 432q0 258 160 427t393 169q209 0 330 -131t121 -330q0 -250 -156.5 -424t-394.5 -174q-205 0 -329 133.5t-124 329.5zM254 440q0 -117 62.5 -187.5t164.5 -70.5q119 0 209 100.5t90 276.5q0 119 -60.5 186.5t-166.5 69.5q-123 0 -211 -104.5t-88 -270.5zM305 1266 q0 59 43 103t105 44q53 0 86.5 -36t33.5 -85q0 -61 -46 -103t-105 -42q-49 0 -83 35t-34 84zM721 1266q0 59 44 103t103 44q53 0 87 -36t34 -85q0 -61 -46 -103t-103 -42q-51 0 -85 35t-34 84z" />
<glyph unicode="&#xf7;" horiz-adv-x="1177" d="M72 498v200h970v-200h-970zM406 227.5q0 59.5 44 103.5t105 44q59 0 102 -44t43 -103.5t-43 -103.5t-102 -44q-61 0 -105 44t-44 103.5zM406 968.5q0 59.5 44 102.5t105 43q59 0 102 -43t43 -102.5t-43 -104.5t-102 -45q-61 0 -105 45t-44 104.5z" />
<glyph unicode="&#xf8;" horiz-adv-x="1128" d="M-68 49l146 139q-61 100 -62 244q0 258 160 427t393 169q172 0 289 -94l133 129l111 -113l-144 -137q61 -106 62 -246q0 -250 -156.5 -424t-394.5 -174q-168 0 -291 97l-135 -129zM254 440q0 -45 8 -75l426 407q-51 39 -135 43q-123 0 -211 -104.5t-88 -270.5zM344 225 q55 -43 137 -43q119 0 209 100.5t90 276.5q0 41 -8 76z" />
<glyph unicode="&#xf9;" horiz-adv-x="1140" d="M53 303q0 53 13 111l124 583h238l-123 -573q-10 -47 -10 -80q0 -162 164 -162q90 0 149.5 66.5t81.5 167.5l123 581h234l-160 -770q-23 -113 -23 -182q0 -23 2 -45h-229q-4 25 -4 59q0 31 2 50q-41 -63 -111.5 -97.5t-144.5 -34.5q-154 0 -240 90.5t-86 235.5zM352 1425 h271l116 -303h-184z" />
<glyph unicode="&#xfa;" horiz-adv-x="1140" d="M53 303q0 53 13 111l124 583h238l-123 -573q-10 -47 -10 -80q0 -162 164 -162q90 0 149.5 66.5t81.5 167.5l123 581h234l-160 -770q-23 -113 -23 -182q0 -23 2 -45h-229q-4 25 -4 59q0 31 2 50q-41 -63 -111.5 -97.5t-144.5 -34.5q-154 0 -240 90.5t-86 235.5zM494 1122 l239 303h297l-332 -303h-204z" />
<glyph unicode="&#xfb;" horiz-adv-x="1140" d="M53 303q0 53 13 111l124 583h238l-123 -573q-10 -47 -10 -80q0 -162 164 -162q90 0 149.5 66.5t81.5 167.5l123 581h234l-160 -770q-23 -113 -23 -182q0 -23 2 -45h-229q-4 25 -4 59q0 31 2 50q-41 -63 -111.5 -97.5t-144.5 -34.5q-154 0 -240 90.5t-86 235.5zM291 1124 l282 293h252l156 -293h-195l-108 158l-176 -158h-211z" />
<glyph unicode="&#xfc;" horiz-adv-x="1140" d="M53 303q0 53 13 111l124 583h238l-123 -573q-10 -47 -10 -80q0 -162 164 -162q90 0 149.5 66.5t81.5 167.5l123 581h234l-160 -770q-23 -113 -23 -182q0 -23 2 -45h-229q-4 25 -4 59q0 31 2 50q-41 -63 -111.5 -97.5t-144.5 -34.5q-154 0 -240 90.5t-86 235.5zM334 1266 q0 59 43 103t104 44q53 0 87 -36t34 -85q0 -61 -46 -103t-105 -42q-49 0 -83 35t-34 84zM750 1266q0 59 44 103t103 44q53 0 87 -36t34 -85q0 -61 -46 -103t-104 -42q-51 0 -84.5 35t-33.5 84z" />
<glyph unicode="&#xfd;" horiz-adv-x="1054" d="M-70 -389l359 553l-232 833h252l154 -589l358 589h271l-897 -1386h-265zM428 1122l240 303h297l-332 -303h-205z" />
<glyph unicode="&#xfe;" horiz-adv-x="1214" d="M-78 -389l397 1872h236l-123 -582q109 121 287 121q186 0 285.5 -119t99.5 -307q0 -268 -147.5 -445.5t-374.5 -177.5q-104 0 -190.5 44t-125.5 116l-110 -522h-234zM338 436q0 -119 60.5 -185.5t162.5 -66.5q119 0 210 103.5t91 277.5q0 119 -60.5 182.5t-166.5 63.5 q-123 0 -210 -104.5t-87 -270.5z" />
<glyph unicode="&#xff;" horiz-adv-x="1054" d="M-70 -389l359 553l-232 833h252l154 -589l358 589h271l-897 -1386h-265zM258 1266q0 59 43 103t105 44q53 0 86.5 -36t33.5 -85q0 -61 -46 -103t-105 -42q-49 0 -83 35t-34 84zM674 1266q0 59 44 103t103 44q53 0 87 -36t34 -85q0 -61 -46 -103t-103 -42q-51 0 -85 35 t-34 84z" />
<glyph unicode="&#x152;" horiz-adv-x="2234" d="M68 612q0 203 66.5 372t177 275.5t247.5 165t285 58.5q352 0 487 -256l47 225h891l-49 -229h-643l-82 -385h584l-49 -224h-582l-84 -385h645l-47 -229h-891l25 119q-172 -150 -404 -150q-279 0 -451.5 178.5t-172.5 464.5zM319 631q0 -201 109 -315.5t289 -114.5 q223 0 365.5 179t146.5 441q0 201 -108.5 315.5t-289.5 114.5q-223 0 -366 -179t-146 -441z" />
<glyph unicode="&#x153;" horiz-adv-x="1851" d="M16 432q0 258 160 427t393 169q244 0 359 -178q160 178 387 178q201 0 314.5 -113.5t113.5 -298.5q0 -92 -29 -182h-710q-2 -8 -3 -22q0 -106 67 -173t169 -67q178 0 256 145l180 -100q-55 -106 -170.5 -177t-271.5 -71q-244 0 -371 178q-158 -178 -391 -178 q-205 0 -329 133.5t-124 329.5zM254 440q0 -117 62.5 -187.5t164.5 -70.5q119 0 209 100.5t90 276.5q0 117 -61.5 186.5t-165.5 69.5q-123 0 -211 -104.5t-88 -270.5zM1030 608h479q0 2 1 13.5t1 17.5q0 76 -49 133t-153 57q-106 0 -178 -63.5t-101 -157.5z" />
<glyph unicode="&#x178;" horiz-adv-x="1267" d="M178 1452h260l226 -598l432 598h295l-643 -842l-127 -610h-248l131 618zM442 1667q0 61 44 106.5t108 45.5q53 0 87 -35t34 -86q0 -66 -45 -109t-105 -43q-53 0 -88 34t-35 87zM864 1667q0 61 44 106.5t108 45.5q53 0 87 -35t34 -86q0 -66 -45 -109t-105 -43 q-53 0 -88 34t-35 87z" />
<glyph unicode="&#x2c6;" horiz-adv-x="790" d="M-86 1124l283 293h252l155 -293h-194l-109 158l-176 -158h-211z" />
<glyph unicode="&#x2dc;" horiz-adv-x="768" d="M2 1137q16 141 86 208.5t168 67.5q70 0 145 -49l13 -8q53 -37 86 -37q63 0 82 90h159q-41 -276 -247 -276q-70 0 -144 49l-16 10q-57 35 -88 35q-64 0 -82 -90h-162z" />
<glyph unicode="&#x2000;" horiz-adv-x="909" />
<glyph unicode="&#x2001;" horiz-adv-x="1819" />
<glyph unicode="&#x2002;" horiz-adv-x="909" />
<glyph unicode="&#x2003;" horiz-adv-x="1819" />
<glyph unicode="&#x2004;" horiz-adv-x="606" />
<glyph unicode="&#x2005;" horiz-adv-x="454" />
<glyph unicode="&#x2006;" horiz-adv-x="303" />
<glyph unicode="&#x2007;" horiz-adv-x="303" />
<glyph unicode="&#x2008;" horiz-adv-x="227" />
<glyph unicode="&#x2009;" horiz-adv-x="363" />
<glyph unicode="&#x200a;" horiz-adv-x="101" />
<glyph unicode="&#x2010;" horiz-adv-x="741" d="M31 494l45 211h575l-43 -211h-577z" />
<glyph unicode="&#x2011;" horiz-adv-x="741" d="M31 494l45 211h575l-43 -211h-577z" />
<glyph unicode="&#x2012;" horiz-adv-x="741" d="M31 494l45 211h575l-43 -211h-577z" />
<glyph unicode="&#x2013;" horiz-adv-x="1296" d="M72 496l43 206h1052l-43 -206h-1052z" />
<glyph unicode="&#x2014;" horiz-adv-x="2222" d="M92 496l43 206h1938l-43 -206h-1938z" />
<glyph unicode="&#x2018;" horiz-adv-x="460" d="M137 1061q0 158 116 278.5t279 128.5l-24 -116q-76 -10 -138.5 -61.5t-80.5 -121.5q16 8 43 9q55 0 91 -35t36 -88q0 -66 -48.5 -113t-118 -47t-112.5 46t-43 120z" />
<glyph unicode="&#x2019;" horiz-adv-x="440" d="M117 895l22 117q74 10 138.5 62t80.5 120q-16 -8 -43 -8q-55 0 -91 35t-36 88q0 66 49.5 112.5t119 46.5t112.5 -47t43 -118q0 -158 -116.5 -279t-278.5 -129z" />
<glyph unicode="&#x201a;" horiz-adv-x="456" d="M-123 -299l25 115q72 10 136 62t81 122q-8 -8 -43 -8q-55 0 -90 35t-35 86q0 68 48 113.5t117.5 45.5t112.5 -46t43 -120q0 -158 -116.5 -278.5t-278.5 -126.5z" />
<glyph unicode="&#x201c;" horiz-adv-x="841" d="M137 1073q0 152 112.5 269.5t272.5 125.5l-24 -112q-72 -10 -133.5 -62.5t-79.5 -115.5q12 6 43 6q55 0 89 -34t34 -85q0 -66 -46.5 -110t-116 -44t-110.5 45t-41 117zM526 1073q0 152 114 269.5t273 125.5l-24 -112q-72 -10 -134.5 -62.5t-78.5 -115.5q12 6 41 6 q55 0 90 -34t35 -85q0 -66 -46 -110t-118 -44q-68 0 -110 45t-42 117z" />
<glyph unicode="&#x201d;" horiz-adv-x="823" d="M117 907l22 113q72 10 134.5 60t78.5 118q-8 -8 -41 -8q-55 0 -89 34t-34 85q0 66 46.5 110.5t115.5 44.5q68 0 110 -45t42 -116q0 -154 -114 -272t-271 -124zM508 907l24 113q72 10 134.5 60t78.5 118q-8 -8 -40 -8q-55 0 -90 34t-35 85q0 66 47 110.5t116 44.5 q68 0 110 -45t42 -116q0 -154 -113.5 -272t-273.5 -124z" />
<glyph unicode="&#x201e;" horiz-adv-x="825" d="M-123 -291l25 113q70 10 133 60t80 118q-8 -8 -43 -8q-55 0 -89 34t-34 85q0 66 46 110.5t116 44.5q68 0 109.5 -45t41.5 -117q0 -154 -112.5 -271.5t-272.5 -123.5zM256 -291l23 113q72 10 134 60t79 118q-8 -8 -41 -8q-55 0 -89 34t-34 85q0 66 46 110.5t115 44.5 q68 0 110 -45t42 -117q0 -154 -113.5 -271.5t-271.5 -123.5z" />
<glyph unicode="&#x2022;" horiz-adv-x="1126" d="M113 602q0 178 124.5 303t301 125t300.5 -125t124 -303q0 -174 -125 -299t-299 -125q-176 0 -301 125t-125 299z" />
<glyph unicode="&#x2026;" horiz-adv-x="1781" d="M14 117q0 68 50.5 118t119.5 50q61 0 100.5 -39t39.5 -96q0 -70 -50 -118t-120 -48q-61 0 -100.5 38.5t-39.5 94.5zM616 117q0 68 50.5 118t119.5 50q61 0 100.5 -39t39.5 -96q0 -70 -50 -118t-120 -48q-61 0 -100.5 38.5t-39.5 94.5zM1221 117q0 68 50 118t120 50 q61 0 100 -39t39 -96q0 -70 -50 -118t-120 -48q-61 0 -100 38.5t-39 94.5z" />
<glyph unicode="&#x202f;" horiz-adv-x="363" />
<glyph unicode="&#x2039;" horiz-adv-x="600" d="M20 606l357 391h244l-369 -409l192 -383h-221z" />
<glyph unicode="&#x203a;" horiz-adv-x="593" d="M-82 205l371 409l-195 383h221l203 -401l-356 -391h-244z" />
<glyph unicode="&#x205f;" horiz-adv-x="454" />
<glyph unicode="&#x20ac;" horiz-adv-x="1392" d="M31 408l39 178h174q0 82 14 151h-158l39 174h172q92 213 287 330t410 117q260 0 405 -135l-133 -176q-104 100 -293 100q-119 0 -232.5 -59.5t-185.5 -176.5h613l-117 -174h-563q-16 -76 -17 -151h494l-117 -178h-346q43 -111 143.5 -169.5t231.5 -58.5q143 0 250 70 l76 -184q-156 -96 -357 -97q-215 0 -380 118t-216 321h-233z" />
<glyph unicode="&#x2122;" horiz-adv-x="1792" d="M125 1294l33 158h614l-33 -158h-219l-125 -589h-174l125 589h-221zM731 705l158 747h221l102 -475l289 475h246l-158 -747h-170l99 466l-285 -466h-131l-101 464l-98 -464h-172z" />
<glyph unicode="&#x25fc;" horiz-adv-x="993" d="M0 0v993h993v-993h-993z" />
<glyph unicode="&#xfb01;" horiz-adv-x="1253" d="M55 0l168 793h-168l43 204h170l39 183q66 315 375 315q96 0 149 -31l-43 -196l-11 4t-31.5 8t-43.5 4q-135 0 -165 -147l-31 -140h647l-213 -997h-235l167 793h-409l-168 -793h-240zM952 1337q0 70 51.5 119t118.5 49q41 0 73 -18.5t49.5 -49t17.5 -67.5q0 -47 -25 -87 t-63.5 -61.5t-81.5 -21.5q-61 0 -100.5 40t-39.5 97z" />
<glyph unicode="&#xfb02;" horiz-adv-x="1249" d="M55 0l168 793h-168l43 204h170l39 183q66 315 375 315q96 0 149 -31l-43 -196l-11 4t-31.5 8t-43.5 4q-135 0 -165 -147l-31 -140h409l105 486h235l-315 -1483h-235l167 793h-409l-168 -793h-240z" />
<glyph unicode="&#xfb03;" horiz-adv-x="1861" d="M55 0l168 793h-168l43 204h170l37 177q68 322 377 321q96 0 149 -31l-43 -196l-5 2t-12 4t-16.5 4t-22.5 4t-27 2q-135 0 -166 -141l-33 -146h383l37 177q68 322 377 321q96 0 149 -31l-43 -196l-3 1q-3 1 -7 2t-9.5 3t-12.5 4t-14 3t-17.5 2t-20.5 1q-135 0 -166 -141 l-31 -146h633l-213 -997h-235l170 793h-400l-165 -793h-242l168 793h-381l-168 -793h-240zM1561 1337q0 70 51 119t119 49q61 0 100 -39t39 -96q0 -72 -51.5 -121t-118.5 -49q-61 0 -100 40t-39 97z" />
<glyph unicode="&#xfb04;" horiz-adv-x="1871" d="M55 0l168 793h-168l43 204h170l37 177q68 322 377 321q96 0 149 -31l-43 -196l-5 2t-12 4t-16.5 4t-22.5 4t-27 2q-135 0 -166 -141l-33 -146h383l37 177q68 322 377 321q96 0 149 -31l-43 -196l-3 1q-3 1 -7 2t-9.5 3t-12.5 4t-14 3t-17.5 2t-20.5 1q-135 0 -166 -141 l-31 -146h410l104 486h236l-315 -1483h-236l168 793h-412l-165 -793h-242l168 793h-381l-168 -793h-240z" />
</font>
</defs>
</svg>
